<svg xmlns="http://www.w3.org/2000/svg" xmlns:xlink="http://www.w3.org/1999/xlink" width="100" height="100" viewBox="0 0 100 100">
  <defs>
    <clipPath id="clip-path">
      <rect id="사각형_3138" data-name="사각형 3138" width="77.166" height="75.063" transform="translate(0 -0.001)" fill="none" stroke="#222" stroke-width="1"/>
    </clipPath>
  </defs>
  <g id="inspection-ico11" transform="translate(953 892)">
    <rect id="사각형_3032" data-name="사각형 3032" width="100" height="100" transform="translate(-953 -892)" fill="none"/>
    <g id="그룹_9030" data-name="그룹 9030" transform="translate(-942 -879.999)" clip-path="url(#clip-path)">
      <path id="패스_3125" data-name="패스 3125" d="M38.354,20.927,27.8,2.025a2,2,0,0,0-3.492,0L3.975,38.468A23.468,23.468,0,0,0,1,49.9C1,63.242,12.213,74.063,26.056,74.063A25.241,25.241,0,0,0,47.133,62.945" fill="none" stroke="#222" stroke-linecap="round" stroke-linejoin="round" stroke-width="2"/>
      <line id="선_279" data-name="선 279" x1="2.03" y1="3.637" transform="translate(38.354 20.926)" fill="none" stroke="#222" stroke-linecap="round" stroke-linejoin="round" stroke-width="2"/>
      <line id="선_280" data-name="선 280" y1="7.527" x2="4.198" transform="translate(10.823 34.742)" fill="none" stroke="#00abe3" stroke-linecap="round" stroke-linejoin="round" stroke-width="2"/>
      <path id="패스_3126" data-name="패스 3126" d="M24.883,66.2c-8.167-.523-14.793-6.469-15.893-14.06" fill="none" stroke="#00abe3" stroke-linecap="round" stroke-linejoin="round" stroke-width="2"/>
      <path id="패스_3127" data-name="패스 3127" d="M69.9,42.746A20.358,20.358,0,1,0,49.544,63.1,20.36,20.36,0,0,0,69.9,42.746Z" fill="none" stroke="#222" stroke-linecap="round" stroke-linejoin="round" stroke-width="2"/>
      <line id="선_281" data-name="선 281" x1="12.23" y1="12.228" transform="translate(63.936 57.137)" fill="none" stroke="#222" stroke-linecap="round" stroke-linejoin="round" stroke-width="2"/>
      <path id="패스_3128" data-name="패스 3128" d="M60.541,41.006c-2.708-2.462-8.072-1.575-11.983,1.982s-4.886,8.429-2.179,10.891,8.072,1.575,11.983-1.982S63.248,43.465,60.541,41.006Z" fill="none" stroke="#222" stroke-linecap="round" stroke-linejoin="round" stroke-width="2"/>
      <path id="패스_3129" data-name="패스 3129" d="M57.38,44.48c.141.373-.239,2.178-2.177,3.939a7.6,7.6,0,0,1-4.782,2.154" fill="none" stroke="#00abe3" stroke-linecap="round" stroke-linejoin="round" stroke-width="2"/>
      <path id="패스_3130" data-name="패스 3130" d="M51.064,41.177a2.2,2.2,0,0,0,.031-.312c.266-5.184-2.662-9.255-6.546-9.084s-7.25,4.512-7.517,9.711c-.266,5.181,2.663,9.255,6.546,9.081a5.1,5.1,0,0,0,1.284-.217" fill="none" stroke="#222" stroke-linecap="round" stroke-linejoin="round" stroke-width="2"/>
      <path id="패스_3131" data-name="패스 3131" d="M44.758,36.476c-.976.043-2.87,2.071-3.034,5.255q-.021.39,0,.749" fill="none" stroke="#00abe3" stroke-linecap="round" stroke-linejoin="round" stroke-width="2"/>
    </g>
  </g>
</svg>
