<svg xmlns="http://www.w3.org/2000/svg" xmlns:xlink="http://www.w3.org/1999/xlink" width="100" height="100" viewBox="0 0 100 100">
  <defs>
    <clipPath id="clip-path">
      <rect id="사각형_3064" data-name="사각형 3064" width="74.004" height="76.407" transform="translate(0 0)" fill="none" stroke="#222" stroke-width="1"/>
    </clipPath>
  </defs>
  <g id="inspection-ico09" transform="translate(-570 -1960)">
    <rect id="사각형_3036" data-name="사각형 3036" width="100" height="100" transform="translate(570 1960)" fill="none"/>
    <g id="그룹_8830" data-name="그룹 8830" transform="translate(582.996 1971.297)">
      <g id="그룹_8829" data-name="그룹 8829" clip-path="url(#clip-path)">
        <line id="선_244" data-name="선 244" y1="3.51" x2="6.08" transform="translate(5.168 15.834)" fill="none" stroke="#222" stroke-linecap="round" stroke-linejoin="round" stroke-width="2"/>
        <path id="패스_3093" data-name="패스 3093" d="M29.712,20.672v-.257H29.7a3.473,3.473,0,0,0-.448-1.468L20,2.906a3.644,3.644,0,0,0-4.728-1.547,3.51,3.51,0,0,0-1.451,4.885l8.875,15.372V61.367a3.51,3.51,0,0,0,7.02,0V20.989C29.721,20.884,29.713,20.778,29.712,20.672Z" fill="none" stroke="#222" stroke-linecap="round" stroke-linejoin="round" stroke-width="2"/>
        <line id="선_245" data-name="선 245" y1="3.51" x2="6.08" transform="translate(17.327 8.814)" fill="none" stroke="#222" stroke-linecap="round" stroke-linejoin="round" stroke-width="2"/>
        <line id="선_246" data-name="선 246" y1="3.51" x2="6.08" transform="translate(14.173 17.39)" fill="none" stroke="#222" stroke-linecap="round" stroke-linejoin="round" stroke-width="2"/>
        <line id="선_247" data-name="선 247" x1="6.08" y1="3.51" transform="translate(57.537 15.834)" fill="none" stroke="#222" stroke-linecap="round" stroke-linejoin="round" stroke-width="2"/>
        <line id="선_248" data-name="선 248" x1="6.08" y1="3.51" transform="translate(45.378 8.814)" fill="none" stroke="#222" stroke-linecap="round" stroke-linejoin="round" stroke-width="2"/>
        <line id="선_249" data-name="선 249" x1="6.08" y1="3.51" transform="translate(48.532 17.39)" fill="none" stroke="#222" stroke-linecap="round" stroke-linejoin="round" stroke-width="2"/>
        <line id="선_250" data-name="선 250" x2="9.36" transform="translate(29.712 22.755)" fill="none" stroke="#222" stroke-linecap="round" stroke-linejoin="round" stroke-width="2"/>
        <line id="선_251" data-name="선 251" x2="9.36" transform="translate(29.712 30.945)" fill="none" stroke="#222" stroke-linecap="round" stroke-linejoin="round" stroke-width="2"/>
        <circle id="타원_91" data-name="타원 91" cx="17.551" cy="17.551" r="17.551" transform="translate(37.902 40.305)" fill="none" stroke="#222" stroke-linecap="round" stroke-linejoin="round" stroke-width="2"/>
        <path id="패스_3095" data-name="패스 3095" d="M46.093,43.028V21.615L54.968,6.244a3.511,3.511,0,0,0-1.451-4.885,3.643,3.643,0,0,0-4.728,1.547l-9.261,16.04a3.479,3.479,0,0,0-.449,1.469h-.006v.257c0,.106-.009.211,0,.317V51.6A17.579,17.579,0,0,1,46.093,43.028Z" fill="none" stroke="#222" stroke-linecap="round" stroke-linejoin="round" stroke-width="2"/>
        <path id="패스_3096" data-name="패스 3096" d="M50.188,47.326h0a12.2,12.2,0,0,0,3.131,8.159l4.269,4.743a12.2,12.2,0,0,1,3.131,8.159" fill="none" stroke="#00abe3" stroke-linecap="round" stroke-linejoin="round" stroke-width="2"/>
        <path id="패스_3097" data-name="패스 3097" d="M60.719,47.326h0a12.2,12.2,0,0,1-3.131,8.159l-4.269,4.743a12.2,12.2,0,0,0-3.131,8.159" fill="none" stroke="#00abe3" stroke-linecap="round" stroke-linejoin="round" stroke-width="2"/>
        <line id="선_252" data-name="선 252" x2="9.36" transform="translate(50.773 50.836)" fill="none" stroke="#00abe3" stroke-linecap="round" stroke-linejoin="round" stroke-width="2"/>
        <line id="선_253" data-name="선 253" x2="9.36" transform="translate(50.773 64.877)" fill="none" stroke="#00abe3" stroke-linecap="round" stroke-linejoin="round" stroke-width="2"/>
        <path id="패스_3094" data-name="패스 3094" d="M52.53,30.507l.884.51a3,3,0,0,0,4.1-1.1l9.87-17.1a3,3,0,0,0-1.1-4.1L65.4,8.214a3,3,0,0,0-4.1,1.1l-9.871,17.1A3,3,0,0,0,52.53,30.507Z" fill="none" stroke="#00abe3" stroke-linecap="round" stroke-linejoin="round" stroke-width="2"/>
        <path id="패스_3092" data-name="패스 3092" d="M16.255,30.507l-.884.51a3,3,0,0,1-4.1-1.1L1.4,12.823a3,3,0,0,1,1.1-4.1l.883-.511a3,3,0,0,1,4.1,1.1l9.871,17.1A3,3,0,0,1,16.255,30.507Z" fill="none" stroke="#00abe3" stroke-linecap="round" stroke-linejoin="round" stroke-width="2"/>
      </g>
    </g>
  </g>
</svg>
