<svg xmlns="http://www.w3.org/2000/svg" xmlns:xlink="http://www.w3.org/1999/xlink" width="100" height="100" viewBox="0 0 100 100">
  <defs>
    <clipPath id="clip-path">
      <rect id="사각형_3065" data-name="사각형 3065" width="74.905" height="75.707" transform="translate(0 0)" fill="none" stroke="#222" stroke-width="1"/>
    </clipPath>
  </defs>
  <g id="inspection-ico10" transform="translate(-1110 -1960)">
    <rect id="사각형_3037" data-name="사각형 3037" width="100" height="100" transform="translate(1110 1960)" fill="none"/>
    <g id="그룹_8832" data-name="그룹 8832" transform="translate(1122.095 1971.99)">
      <g id="그룹_8831" data-name="그룹 8831" clip-path="url(#clip-path)">
        <path id="패스_3098" data-name="패스 3098" d="M9.971,64.948h0a14.232,14.232,0,0,1,0-20.127L44.807,9.985A14.232,14.232,0,0,1,64.934,30.112L30.1,64.948A14.232,14.232,0,0,1,9.971,64.948Z" fill="none" stroke="#222" stroke-linecap="round" stroke-linejoin="round" stroke-width="2"/>
        <path id="패스_3099" data-name="패스 3099" d="M14.616,60.3h0a7.663,7.663,0,0,1,0-10.838L49.452,14.63A7.663,7.663,0,0,1,60.289,25.467L25.454,60.3A7.663,7.663,0,0,1,14.616,60.3Z" fill="none" stroke="#222" stroke-linecap="round" stroke-linejoin="round" stroke-width="2"/>
        <line id="선_254" data-name="선 254" x1="3.871" y2="3.871" transform="translate(64.934 6.114)" fill="none" stroke="#222" stroke-linecap="round" stroke-linejoin="round" stroke-width="2"/>
        <line id="선_255" data-name="선 255" x1="1.417" y2="5.287" transform="translate(58.554 1.014)" fill="none" stroke="#222" stroke-linecap="round" stroke-linejoin="round" stroke-width="2"/>
        <line id="선_256" data-name="선 256" x2="1.417" y2="5.287" transform="translate(49.77 1.014)" fill="none" stroke="#222" stroke-linecap="round" stroke-linejoin="round" stroke-width="2"/>
        <line id="선_257" data-name="선 257" x2="3.871" y2="3.871" transform="translate(40.936 6.114)" fill="none" stroke="#222" stroke-linecap="round" stroke-linejoin="round" stroke-width="2"/>
        <line id="선_258" data-name="선 258" x2="5.287" y2="1.417" transform="translate(1 49.784)" fill="none" stroke="#222" stroke-linecap="round" stroke-linejoin="round" stroke-width="2"/>
        <line id="선_259" data-name="선 259" y1="1.417" x2="5.287" transform="translate(1 58.568)" fill="none" stroke="#222" stroke-linecap="round" stroke-linejoin="round" stroke-width="2"/>
        <line id="선_260" data-name="선 260" y1="5.287" x2="1.417" transform="translate(14.934 68.632)" fill="none" stroke="#222" stroke-linecap="round" stroke-linejoin="round" stroke-width="2"/>
        <line id="선_261" data-name="선 261" x1="1.417" y1="5.287" transform="translate(23.718 68.632)" fill="none" stroke="#222" stroke-linecap="round" stroke-linejoin="round" stroke-width="2"/>
        <line id="선_262" data-name="선 262" x1="3.871" y1="3.871" transform="translate(64.934 30.112)" fill="none" stroke="#222" stroke-linecap="round" stroke-linejoin="round" stroke-width="2"/>
        <line id="선_263" data-name="선 263" x2="3.871" y2="3.871" transform="translate(6.1 40.95)" fill="none" stroke="#222" stroke-linecap="round" stroke-linejoin="round" stroke-width="2"/>
        <line id="선_264" data-name="선 264" x2="3.871" y2="3.871" transform="translate(13.067 33.983)" fill="none" stroke="#222" stroke-linecap="round" stroke-linejoin="round" stroke-width="2"/>
        <line id="선_265" data-name="선 265" x2="3.871" y2="3.871" transform="translate(20.035 27.016)" fill="none" stroke="#222" stroke-linecap="round" stroke-linejoin="round" stroke-width="2"/>
        <line id="선_266" data-name="선 266" x2="3.871" y2="3.871" transform="translate(27.002 20.049)" fill="none" stroke="#222" stroke-linecap="round" stroke-linejoin="round" stroke-width="2"/>
        <line id="선_267" data-name="선 267" x2="3.871" y2="3.871" transform="translate(33.969 13.082)" fill="none" stroke="#222" stroke-linecap="round" stroke-linejoin="round" stroke-width="2"/>
        <line id="선_268" data-name="선 268" x2="3.871" y2="3.871" transform="translate(37.065 57.981)" fill="none" stroke="#222" stroke-linecap="round" stroke-linejoin="round" stroke-width="2"/>
        <line id="선_269" data-name="선 269" x2="3.871" y2="3.871" transform="translate(44.033 51.014)" fill="none" stroke="#222" stroke-linecap="round" stroke-linejoin="round" stroke-width="2"/>
        <line id="선_270" data-name="선 270" x2="3.871" y2="3.871" transform="translate(51 44.047)" fill="none" stroke="#222" stroke-linecap="round" stroke-linejoin="round" stroke-width="2"/>
        <line id="선_271" data-name="선 271" x2="3.871" y2="3.871" transform="translate(57.967 37.079)" fill="none" stroke="#222" stroke-linecap="round" stroke-linejoin="round" stroke-width="2"/>
        <line id="선_272" data-name="선 272" x1="3.871" y1="3.871" transform="translate(30.098 64.948)" fill="none" stroke="#222" stroke-linecap="round" stroke-linejoin="round" stroke-width="2"/>
        <line id="선_273" data-name="선 273" x1="5.287" y1="1.417" transform="translate(68.618 23.732)" fill="none" stroke="#222" stroke-linecap="round" stroke-linejoin="round" stroke-width="2"/>
        <line id="선_274" data-name="선 274" x1="5.287" y2="1.417" transform="translate(68.618 14.948)" fill="none" stroke="#222" stroke-linecap="round" stroke-linejoin="round" stroke-width="2"/>
        <line id="선_275" data-name="선 275" x1="3.871" y2="3.871" transform="translate(6.1 64.948)" fill="none" stroke="#222" stroke-linecap="round" stroke-linejoin="round" stroke-width="2"/>
        <path id="패스_3100" data-name="패스 3100" d="M56.806,22.758a2.737,2.737,0,1,1,0-3.871A2.737,2.737,0,0,1,56.806,22.758Z" fill="none" stroke="#00abe3" stroke-linecap="round" stroke-linejoin="round" stroke-width="2"/>
        <path id="패스_3101" data-name="패스 3101" d="M37.452,39.015a2.737,2.737,0,1,1,0-3.871A2.737,2.737,0,0,1,37.452,39.015Z" fill="none" stroke="#00abe3" stroke-linecap="round" stroke-linejoin="round" stroke-width="2"/>
        <path id="패스_3102" data-name="패스 3102" d="M13.455,25.855a2.738,2.738,0,1,1,0-3.871A2.738,2.738,0,0,1,13.455,25.855Z" fill="none" stroke="#00abe3" stroke-linecap="round" stroke-linejoin="round" stroke-width="2"/>
        <path id="패스_3103" data-name="패스 3103" d="M5.713,16.565a2.737,2.737,0,1,1,0-3.871A2.737,2.737,0,0,1,5.713,16.565Z" fill="none" stroke="#00abe3" stroke-linecap="round" stroke-linejoin="round" stroke-width="2"/>
        <path id="패스_3104" data-name="패스 3104" d="M5.713,35.144a2.737,2.737,0,1,1,0-3.871A2.737,2.737,0,0,1,5.713,35.144Z" fill="none" stroke="#00abe3" stroke-linecap="round" stroke-linejoin="round" stroke-width="2"/>
        <path id="패스_3105" data-name="패스 3105" d="M65.321,52.949a2.737,2.737,0,1,1,0-3.871A2.737,2.737,0,0,1,65.321,52.949Z" fill="none" stroke="#00abe3" stroke-linecap="round" stroke-linejoin="round" stroke-width="2"/>
        <path id="패스_3106" data-name="패스 3106" d="M73.062,43.66a2.737,2.737,0,1,1,0-3.871A2.737,2.737,0,0,1,73.062,43.66Z" fill="none" stroke="#00abe3" stroke-linecap="round" stroke-linejoin="round" stroke-width="2"/>
        <path id="패스_3107" data-name="패스 3107" d="M73.062,62.239a2.737,2.737,0,1,1,0-3.871A2.737,2.737,0,0,1,73.062,62.239Z" fill="none" stroke="#00abe3" stroke-linecap="round" stroke-linejoin="round" stroke-width="2"/>
        <path id="패스_3108" data-name="패스 3108" d="M33.582,47.53a2.737,2.737,0,1,1,0-3.871A2.737,2.737,0,0,1,33.582,47.53Z" fill="none" stroke="#00abe3" stroke-linecap="round" stroke-linejoin="round" stroke-width="2"/>
        <path id="패스_3109" data-name="패스 3109" d="M56.032,68.432a2.738,2.738,0,1,1,0-3.871A2.738,2.738,0,0,1,56.032,68.432Z" fill="none" stroke="#222" stroke-linecap="round" stroke-linejoin="round" stroke-width="2"/>
        <path id="패스_3110" data-name="패스 3110" d="M59.9,72.3a8.211,8.211,0,1,1,0-11.612A8.21,8.21,0,0,1,59.9,72.3Z" fill="none" stroke="#222" stroke-linecap="round" stroke-linejoin="round" stroke-width="2"/>
        <path id="패스_3111" data-name="패스 3111" d="M21.97,11.146a2.737,2.737,0,1,1,0-3.871A2.737,2.737,0,0,1,21.97,11.146Z" fill="none" stroke="#222" stroke-linecap="round" stroke-linejoin="round" stroke-width="2"/>
        <path id="패스_3112" data-name="패스 3112" d="M25.84,15.017a8.211,8.211,0,1,1,0-11.612A8.21,8.21,0,0,1,25.84,15.017Z" fill="none" stroke="#222" stroke-linecap="round" stroke-linejoin="round" stroke-width="2"/>
        <path id="패스_3113" data-name="패스 3113" d="M47.129,26.242Z" fill="none" stroke="#222" stroke-linecap="round" stroke-linejoin="round" stroke-width="2"/>
        <path id="패스_3114" data-name="패스 3114" d="M42.484,30.886Z" fill="none" stroke="#222" stroke-linecap="round" stroke-linejoin="round" stroke-width="2"/>
        <path id="패스_3115" data-name="패스 3115" d="M47.9,31.661Z" fill="none" stroke="#222" stroke-linecap="round" stroke-linejoin="round" stroke-width="2"/>
        <path id="패스_3116" data-name="패스 3116" d="M25.454,52.562Z" fill="none" stroke="#222" stroke-linecap="round" stroke-linejoin="round" stroke-width="2"/>
        <path id="패스_3117" data-name="패스 3117" d="M20.809,57.207Z" fill="none" stroke="#222" stroke-linecap="round" stroke-linejoin="round" stroke-width="2"/>
        <path id="패스_3118" data-name="패스 3118" d="M20.035,51.788Z" fill="none" stroke="#222" stroke-linecap="round" stroke-linejoin="round" stroke-width="2"/>
      </g>
    </g>
  </g>
</svg>
