<svg xmlns="http://www.w3.org/2000/svg" xmlns:xlink="http://www.w3.org/1999/xlink" width="100" height="100" viewBox="0 0 100 100">
  <defs>
    <clipPath id="clip-path">
      <rect id="사각형_3057" data-name="사각형 3057" width="73.293" height="66.739" transform="translate(0 0)" fill="none" stroke="#222" stroke-width="1"/>
    </clipPath>
  </defs>
  <g id="inspection-ico13" transform="translate(518 892)">
    <rect id="사각형_3030" data-name="사각형 3030" width="100" height="100" transform="translate(-518 -892)" fill="none"/>
    <g id="그룹_8813" data-name="그룹 8813" transform="translate(-505 -875.369)" clip-path="url(#clip-path)">
      <line id="선_190" data-name="선 190" x2="6" transform="translate(4 31)" fill="none" stroke="#00abe3" stroke-linecap="round" stroke-linejoin="round" stroke-width="2"/>
      <line id="선_191" data-name="선 191" x2="6" transform="translate(4 38)" fill="none" stroke="#00abe3" stroke-linecap="round" stroke-linejoin="round" stroke-width="2"/>
      <line id="선_192" data-name="선 192" x2="6" transform="translate(4 45)" fill="none" stroke="#00abe3" stroke-linecap="round" stroke-linejoin="round" stroke-width="2"/>
      <rect id="사각형_3056" data-name="사각형 3056" width="58" height="11" rx="1" transform="translate(1 1)" fill="none" stroke="#222" stroke-linecap="round" stroke-linejoin="round" stroke-width="2"/>
      <path id="패스_3042" data-name="패스 3042" d="M14,53H4V23H14a2,2,0,0,1,2,2V51A2,2,0,0,1,14,53Z" fill="none" stroke="#222" stroke-linecap="round" stroke-linejoin="round" stroke-width="2"/>
      <line id="선_187" data-name="선 187" y2="5" transform="translate(15 1)" fill="none" stroke="#222" stroke-linecap="round" stroke-linejoin="round" stroke-width="2"/>
      <line id="선_188" data-name="선 188" y2="5" transform="translate(30 1)" fill="none" stroke="#222" stroke-linecap="round" stroke-linejoin="round" stroke-width="2"/>
      <line id="선_189" data-name="선 189" y2="5" transform="translate(45 1)" fill="none" stroke="#222" stroke-linecap="round" stroke-linejoin="round" stroke-width="2"/>
      <path id="패스_3044" data-name="패스 3044" d="M27.822,26l2.361-2.693a2,2,0,0,1,2.822-.185L36.287,26H56V12H4V23H14a2,2,0,0,1,2,2v1Z" fill="none" stroke="#222" stroke-linecap="round" stroke-linejoin="round" stroke-width="2"/>
      <path id="패스_3045" data-name="패스 3045" d="M56,43.284V26H36.287Z" fill="none" stroke="#222" stroke-linecap="round" stroke-linejoin="round" stroke-width="2"/>
      <path id="패스_3046" data-name="패스 3046" d="M25.753,31.393a2,2,0,0,1-.185-2.822L27.822,26H16V51a2,2,0,0,1-2,2H4v8a3,3,0,0,0,3,3H53a3,3,0,0,0,3-3V57.913Z" fill="none" stroke="#222" stroke-linecap="round" stroke-linejoin="round" stroke-width="2"/>
      <line id="선_193" data-name="선 193" y1="8.271" x2="7.252" transform="translate(29.051 26.014)" fill="none" stroke="#00abe3" stroke-linecap="round" stroke-linejoin="round" stroke-width="2"/>
      <line id="선_194" data-name="선 194" y1="8.271" x2="7.252" transform="translate(33.533 29.943)" fill="none" stroke="#00abe3" stroke-linecap="round" stroke-linejoin="round" stroke-width="2"/>
      <line id="선_195" data-name="선 195" y1="8.271" x2="7.252" transform="translate(38.014 33.872)" fill="none" stroke="#222" stroke-linecap="round" stroke-linejoin="round" stroke-width="2"/>
      <line id="선_196" data-name="선 196" y1="8.271" x2="7.252" transform="translate(42.496 37.802)" fill="none" stroke="#00abe3" stroke-linecap="round" stroke-linejoin="round" stroke-width="2"/>
      <line id="선_197" data-name="선 197" y1="8.271" x2="7.252" transform="translate(46.977 41.731)" fill="none" stroke="#222" stroke-linecap="round" stroke-linejoin="round" stroke-width="2"/>
      <line id="선_198" data-name="선 198" y1="8.271" x2="7.252" transform="translate(51.459 45.66)" fill="none" stroke="#222" stroke-linecap="round" stroke-linejoin="round" stroke-width="2"/>
      <path id="패스_3043" data-name="패스 3043" d="M71.8,59.794l-4.615,5.263a2,2,0,0,1-2.822.186L25.753,31.393a2,2,0,0,1-.185-2.822l4.614-5.264a2,2,0,0,1,2.823-.185l38.607,33.85A2,2,0,0,1,71.8,59.794Z" fill="none" stroke="#222" stroke-linecap="round" stroke-linejoin="round" stroke-width="2"/>
    </g>
  </g>
</svg>
