<svg xmlns="http://www.w3.org/2000/svg" xmlns:xlink="http://www.w3.org/1999/xlink" width="100" height="100" viewBox="0 0 100 100">
  <defs>
    <clipPath id="clip-path">
      <rect id="사각형_3143" data-name="사각형 3143" width="70.005" height="77" fill="none" stroke="#222" stroke-width="1"/>
    </clipPath>
  </defs>
  <g id="inspection-ico16" transform="translate(953 723)">
    <rect id="사각형_3037" data-name="사각형 3037" width="100" height="100" transform="translate(-953 -723)" fill="none"/>
    <rect id="사각형_3142" data-name="사각형 3142" width="16" height="20" transform="translate(-911.002 -694.656)" fill="none" stroke="#000" stroke-linecap="round" stroke-linejoin="round" stroke-width="2"/>
    <g id="그룹_9039" data-name="그룹 9039" transform="translate(-938.002 -711.656)">
      <g id="그룹_9038" data-name="그룹 9038" clip-path="url(#clip-path)">
        <path id="패스_3160" data-name="패스 3160" d="M45.783,1H41.616a3.1,3.1,0,0,0-2.056.822A7.5,7.5,0,0,1,35,3a7.5,7.5,0,0,1-4.559-1.178A3.1,3.1,0,0,0,28.385,1H24.528a4.04,4.04,0,0,0-3.7,6.12L27,17H43l6.175-9.88A4,4,0,0,0,45.783,1Z" fill="none" stroke="#222" stroke-linecap="round" stroke-linejoin="round" stroke-width="2"/>
        <line id="선_292" data-name="선 292" x2="16" transform="translate(27 27)" fill="none" stroke="#222" stroke-linecap="round" stroke-linejoin="round" stroke-width="2"/>
        <line id="선_293" data-name="선 293" x2="16" transform="translate(27 66)" fill="none" stroke="#222" stroke-linecap="round" stroke-linejoin="round" stroke-width="2"/>
        <path id="패스_3161" data-name="패스 3161" d="M62.929,27.646,57.9,19.516a6.753,6.753,0,0,0-11.563.132,24.133,24.133,0,0,0-3.328,12.229V37H27V31.877a24.133,24.133,0,0,0-3.328-12.229,6.753,6.753,0,0,0-11.563-.132l-5.033,8.13A9.5,9.5,0,0,0,1,36.5v14a9.5,9.5,0,0,0,6,8.826V64a8,8,0,0,0,16,0,8,8,0,0,1,8-8h8a8,8,0,0,1,8,8h.005a8,8,0,0,0,16,0V59.326A9.5,9.5,0,0,0,69,50.5v-14A9.5,9.5,0,0,0,62.929,27.646Z" fill="none" stroke="#222" stroke-linecap="round" stroke-linejoin="round" stroke-width="2"/>
        <path id="패스_3162" data-name="패스 3162" d="M39,56H31a7.955,7.955,0,0,0-4,1.079V76H43V57.079A7.955,7.955,0,0,0,39,56Z" fill="none" stroke="#222" stroke-linecap="round" stroke-linejoin="round" stroke-width="2"/>
        <path id="패스_3163" data-name="패스 3163" d="M13,33.5a2.5,2.5,0,0,1,5,0" fill="none" stroke="#00abe3" stroke-linecap="round" stroke-linejoin="round" stroke-width="2"/>
        <path id="패스_3164" data-name="패스 3164" d="M8,45.5a2.5,2.5,0,0,1,5,0" fill="none" stroke="#00abe3" stroke-linecap="round" stroke-linejoin="round" stroke-width="2"/>
        <path id="패스_3165" data-name="패스 3165" d="M15,55.5a2.5,2.5,0,0,1,5,0" fill="none" stroke="#00abe3" stroke-linecap="round" stroke-linejoin="round" stroke-width="2"/>
        <path id="패스_3166" data-name="패스 3166" d="M25,47.5a2.5,2.5,0,0,1,5,0" fill="none" stroke="#00abe3" stroke-linecap="round" stroke-linejoin="round" stroke-width="2"/>
        <path id="패스_3167" data-name="패스 3167" d="M57.005,33.5a2.5,2.5,0,0,0-5,0" fill="none" stroke="#00abe3" stroke-linecap="round" stroke-linejoin="round" stroke-width="2"/>
        <path id="패스_3168" data-name="패스 3168" d="M62.005,45.5a2.5,2.5,0,0,0-5,0" fill="none" stroke="#00abe3" stroke-linecap="round" stroke-linejoin="round" stroke-width="2"/>
        <path id="패스_3169" data-name="패스 3169" d="M55.005,55.5a2.5,2.5,0,0,0-5,0" fill="none" stroke="#00abe3" stroke-linecap="round" stroke-linejoin="round" stroke-width="2"/>
        <path id="패스_3170" data-name="패스 3170" d="M45.005,47.5a2.5,2.5,0,0,0-5,0" fill="none" stroke="#00abe3" stroke-linecap="round" stroke-linejoin="round" stroke-width="2"/>
      </g>
    </g>
  </g>
</svg>
