<svg xmlns="http://www.w3.org/2000/svg" xmlns:xlink="http://www.w3.org/1999/xlink" width="100" height="100" viewBox="0 0 100 100">
  <defs>
    <clipPath id="clip-path">
      <rect id="사각형_3498" data-name="사각형 3498" width="83" height="83" fill="none"/>
    </clipPath>
  </defs>
  <g id="network-ico01" transform="translate(-570 -1676)">
    <rect id="사각형_3032" data-name="사각형 3032" width="100" height="100" transform="translate(570 1676)" fill="none"/>
    <g id="그룹_9718" data-name="그룹 9718" transform="translate(579 1685)">
      <g id="그룹_9717" data-name="그룹 9717" clip-path="url(#clip-path)">
        <line id="선_459" data-name="선 459" y1="9" transform="translate(41.5 73)" fill="none" stroke="#00abe3" stroke-linecap="round" stroke-linejoin="round" stroke-width="2"/>
        <line id="선_460" data-name="선 460" x1="9" transform="translate(73 41.5)" fill="none" stroke="#00abe3" stroke-linecap="round" stroke-linejoin="round" stroke-width="2"/>
        <line id="선_461" data-name="선 461" x2="9" transform="translate(1 41.5)" fill="none" stroke="#00abe3" stroke-linecap="round" stroke-linejoin="round" stroke-width="2"/>
        <line id="선_462" data-name="선 462" y2="9" transform="translate(41.5 1)" fill="none" stroke="#00abe3" stroke-linecap="round" stroke-linejoin="round" stroke-width="2"/>
        <path id="패스_4416" data-name="패스 4416" d="M22.913,46.937a1.879,1.879,0,0,1,.516.079,2.2,2.2,0,0,1,.622.318,4.9,4.9,0,0,0,1.071.608,3.648,3.648,0,0,0,1.442.265,3.1,3.1,0,0,0,1.548-.411,3.373,3.373,0,0,0,1.2-1.164,3.316,3.316,0,0,0,.476-1.812,3.118,3.118,0,0,0-.41-1.667A2.708,2.708,0,0,0,28.3,42.148a3.131,3.131,0,0,0-1.442-.344,3.674,3.674,0,0,0-.965.106c-.256.071-.5.145-.741.224a2.622,2.622,0,0,1-.834.119,1.118,1.118,0,0,1-.939-.423,1.58,1.58,0,0,1-.331-1.005,1.452,1.452,0,0,1,.146-.662,3.229,3.229,0,0,1,.436-.634l4.657-5.081.714.609H22.489a1.447,1.447,0,0,1-1.481-1.482,1.363,1.363,0,0,1,.423-1.019,1.461,1.461,0,0,1,1.058-.41h8.1a1.581,1.581,0,0,1,1.23.45,1.621,1.621,0,0,1,.41,1.138,1.364,1.364,0,0,1-.172.661,2.655,2.655,0,0,1-.463.609l-4.683,5.159-.714-.9A3.967,3.967,0,0,1,27,39.026a4.39,4.39,0,0,1,.86-.106,4.606,4.606,0,0,1,2.712.807,5.37,5.37,0,0,1,1.773,2.09,6.265,6.265,0,0,1,.621,2.765,6.369,6.369,0,0,1-.873,3.387,5.731,5.731,0,0,1-2.46,2.2,8.435,8.435,0,0,1-3.7.767A7.922,7.922,0,0,1,24,50.694a6.4,6.4,0,0,1-1.641-.635,1.814,1.814,0,0,1-.78-.7,1.581,1.581,0,0,1-.2-.728,1.808,1.808,0,0,1,.437-1.151,1.354,1.354,0,0,1,1.1-.542" fill="#00abe3"/>
        <path id="패스_4417" data-name="패스 4417" d="M41.3,50.933a5.535,5.535,0,0,1-2.58-.6,5.893,5.893,0,0,1-1.958-1.627,7.8,7.8,0,0,1-1.244-2.328,8.318,8.318,0,0,1-.436-2.673,14.424,14.424,0,0,1,.2-2.169,14.645,14.645,0,0,1,.7-2.673,12.111,12.111,0,0,1,1.4-2.725,10.208,10.208,0,0,1,2.289-2.381,9.88,9.88,0,0,1,3.4-1.614,2.509,2.509,0,0,1,.609-.079,1.972,1.972,0,0,1,1.1.317,1.284,1.284,0,0,1,.49,1.164,1.5,1.5,0,0,1-.384,1.019,2.106,2.106,0,0,1-1.019.622,8.061,8.061,0,0,0-1.786.78,8.278,8.278,0,0,0-1.64,1.257,7.845,7.845,0,0,0-1.3,1.68,7.034,7.034,0,0,0-.78,2.024l-.714-.026a11,11,0,0,1,.913-.966,5.26,5.26,0,0,1,1.322-.9,4.136,4.136,0,0,1,1.839-.383,4.813,4.813,0,0,1,2.051.476A6.532,6.532,0,0,1,46.964,42.4a5.8,5.8,0,0,1,.5,2.394,5.944,5.944,0,0,1-.834,3.1,6.226,6.226,0,0,1-2.222,2.222,6,6,0,0,1-3.109.821m0-2.911a2.8,2.8,0,0,0,1.521-.423A3.036,3.036,0,0,0,43.9,46.435a3.617,3.617,0,0,0,0-3.3,3.071,3.071,0,0,0-1.072-1.151,2.948,2.948,0,0,0-3.043,0,3.061,3.061,0,0,0-1.071,1.151,3.617,3.617,0,0,0,0,3.3A3.026,3.026,0,0,0,39.78,47.6a2.806,2.806,0,0,0,1.522.423" fill="#00abe3"/>
        <path id="패스_4418" data-name="패스 4418" d="M54.716,50.932a7.96,7.96,0,0,1-2.09-.3,4.912,4.912,0,0,1-1.826-.887,1.992,1.992,0,0,1-.542-.755,2.245,2.245,0,0,1-.2-.885,1.206,1.206,0,0,1,.383-.847,1.456,1.456,0,0,1,1.1-.4,2.246,2.246,0,0,1,1.19.5,6.823,6.823,0,0,0,.927.476,2.614,2.614,0,0,0,1.031.212,4.268,4.268,0,0,0,2.051-.5,4.116,4.116,0,0,0,1.508-1.35,3.209,3.209,0,0,0,.569-1.825,3.094,3.094,0,0,0-.463-1.72,3.2,3.2,0,0,0-1.217-1.111,3.434,3.434,0,0,0-1.627-.4,3.552,3.552,0,0,0-1.429.265,12.278,12.278,0,0,0-1.111.542,2.077,2.077,0,0,1-1.005.278,1.885,1.885,0,0,1-1.3-.384,1.636,1.636,0,0,1-.529-.913,2.953,2.953,0,0,1-.053-.952l.82-6.562a1.518,1.518,0,0,1,.542-.914,1.6,1.6,0,0,1,1.045-.357H60.14a1.449,1.449,0,0,1,1.482,1.482,1.357,1.357,0,0,1-.424,1.018,1.452,1.452,0,0,1-1.058.411H53.314l.291-.238-.714,5.5-.345-1.006a1.507,1.507,0,0,1,.688-.5,7.4,7.4,0,0,1,1.217-.41,5.588,5.588,0,0,1,1.35-.171,6.242,6.242,0,0,1,3.175.807,5.923,5.923,0,0,1,2.209,2.2,6.122,6.122,0,0,1,.807,3.135,5.766,5.766,0,0,1-.582,2.567,6.7,6.7,0,0,1-1.6,2.09,7.587,7.587,0,0,1-2.328,1.4,7.673,7.673,0,0,1-2.765.5" fill="#00abe3"/>
        <circle id="타원_175" data-name="타원 175" cx="40.5" cy="40.5" r="40.5" transform="translate(1 1)" fill="none" stroke="#222" stroke-linecap="round" stroke-linejoin="round" stroke-width="2"/>
        <line id="선_463" data-name="선 463" x2="2.75" y2="4.763" transform="translate(21.25 6.426)" fill="none" stroke="#222" stroke-linecap="round" stroke-linejoin="round" stroke-width="2"/>
        <line id="선_464" data-name="선 464" x2="4.763" y2="2.75" transform="translate(6.426 21.25)" fill="none" stroke="#222" stroke-linecap="round" stroke-linejoin="round" stroke-width="2"/>
        <line id="선_465" data-name="선 465" y1="2.75" x2="4.763" transform="translate(6.426 59)" fill="none" stroke="#222" stroke-linecap="round" stroke-linejoin="round" stroke-width="2"/>
        <line id="선_466" data-name="선 466" y1="4.763" x2="2.75" transform="translate(21.25 71.811)" fill="none" stroke="#222" stroke-linecap="round" stroke-linejoin="round" stroke-width="2"/>
        <line id="선_467" data-name="선 467" x1="2.75" y1="4.763" transform="translate(59 71.811)" fill="none" stroke="#222" stroke-linecap="round" stroke-linejoin="round" stroke-width="2"/>
        <line id="선_468" data-name="선 468" x1="4.763" y1="2.75" transform="translate(71.811 59)" fill="none" stroke="#222" stroke-linecap="round" stroke-linejoin="round" stroke-width="2"/>
        <line id="선_469" data-name="선 469" x1="4.763" y2="2.75" transform="translate(71.811 21.25)" fill="none" stroke="#222" stroke-linecap="round" stroke-linejoin="round" stroke-width="2"/>
        <line id="선_470" data-name="선 470" x1="2.75" y2="4.763" transform="translate(59 6.426)" fill="none" stroke="#222" stroke-linecap="round" stroke-linejoin="round" stroke-width="2"/>
      </g>
    </g>
  </g>
</svg>
