<svg xmlns="http://www.w3.org/2000/svg" xmlns:xlink="http://www.w3.org/1999/xlink" width="100" height="100" viewBox="0 0 100 100">
  <defs>
    <clipPath id="clip-path">
      <rect id="사각형_3254" data-name="사각형 3254" width="85" height="59.785" fill="none"/>
    </clipPath>
    <clipPath id="clip-path-2">
      <rect id="사각형_3248" data-name="사각형 3248" width="85" height="59.785" transform="translate(0 0)" fill="none"/>
    </clipPath>
    <clipPath id="clip-path-3">
      <rect id="사각형_3616" data-name="사각형 3616" width="45.356" height="11.01" transform="translate(0 0)" fill="none"/>
    </clipPath>
  </defs>
  <g id="network-ico02" transform="translate(-0.322)">
    <rect id="사각형_3028" data-name="사각형 3028" width="100" height="100" transform="translate(0.321)" fill="none"/>
    <g id="그룹_9323" data-name="그룹 9323" transform="translate(7.82 20.107)">
      <g id="그룹_9322" data-name="그룹 9322" clip-path="url(#clip-path)">
        <g id="그룹_9311" data-name="그룹 9311">
          <g id="그룹_9310" data-name="그룹 9310" clip-path="url(#clip-path-2)">
            <path id="패스_3749" data-name="패스 3749" d="M66.139,14.658V30.417a2.1,2.1,0,0,0,2.1,2.1H84v-6.3L72.443,14.658Z" fill="none" stroke="#00abe3" stroke-linecap="round" stroke-linejoin="round" stroke-width="2"/>
            <path id="패스_3745" data-name="패스 3745" d="M56.683,41.975H1V3A2,2,0,0,1,3,1H54.683a2,2,0,0,1,2,2Z" fill="none" stroke="#222" stroke-linecap="round" stroke-linejoin="round" stroke-width="2"/>
            <circle id="타원_151" data-name="타원 151" cx="8.405" cy="8.405" r="8.405" transform="translate(11.507 41.975)" fill="none" stroke="#222" stroke-linecap="round" stroke-linejoin="round" stroke-width="2"/>
            <path id="패스_3746" data-name="패스 3746" d="M4.152,48.279a2.1,2.1,0,0,0,2.1,2.1h5.253a8.406,8.406,0,0,1,8.4-8.405H4.152Z" fill="none" stroke="#222" stroke-linecap="round" stroke-linejoin="round" stroke-width="2"/>
            <path id="패스_3747" data-name="패스 3747" d="M19.911,41.975a8.4,8.4,0,0,1,8.405,8.405H56.683V41.975Z" fill="none" stroke="#222" stroke-linecap="round" stroke-linejoin="round" stroke-width="2"/>
            <circle id="타원_152" data-name="타원 152" cx="3.152" cy="3.152" r="3.152" transform="translate(16.759 47.228)" fill="none" stroke="#00abe3" stroke-linecap="round" stroke-linejoin="round" stroke-width="2"/>
            <circle id="타원_153" data-name="타원 153" cx="8.405" cy="8.405" r="8.405" transform="translate(56.684 41.975)" fill="none" stroke="#222" stroke-linecap="round" stroke-linejoin="round" stroke-width="2"/>
            <path id="패스_3748" data-name="패스 3748" d="M72.443,14.658H56.684V50.38a8.405,8.405,0,1,1,16.81,0h8.4a2.1,2.1,0,0,0,2.1-2.1V26.215Z" fill="none" stroke="#222" stroke-linecap="round" stroke-linejoin="round" stroke-width="2"/>
            <circle id="타원_154" data-name="타원 154" cx="3.152" cy="3.152" r="3.152" transform="translate(61.937 47.228)" fill="none" stroke="#00abe3" stroke-linecap="round" stroke-linejoin="round" stroke-width="2"/>
          </g>
        </g>
        <g id="그룹_9835" data-name="그룹 9835" transform="translate(5.502 26.36)">
          <g id="그룹_9834" data-name="그룹 9834" transform="translate(0 0)" clip-path="url(#clip-path-3)">
            <path id="패스_4422" data-name="패스 4422" d="M56.769,13.359a2.97,2.97,0,0,1-4.088.063c-.742-.742-.753-1.579-.753-3s.011-2.258.753-3a2.861,2.861,0,0,1,4.788,1.6H56.005a1.255,1.255,0,0,0-1.338-1.087,1.224,1.224,0,0,0-.93.4c-.272.314-.356.669-.356,2.091s.084,1.788.356,2.1a1.217,1.217,0,0,0,.93.387,1.335,1.335,0,0,0,1.035-.418,1.433,1.433,0,0,0,.334-.993v-.272H54.667V10H57.48v1.087a2.9,2.9,0,0,1-.711,2.269" transform="translate(-38.469 -4.917)" fill="#1a1718"/>
            <path id="패스_4423" data-name="패스 4423" d="M80.267,14.206a2.692,2.692,0,0,1-2-.784c-.742-.742-.753-1.579-.753-3s.01-2.258.753-3a2.692,2.692,0,0,1,2-.784A2.621,2.621,0,0,1,83,8.989H81.512a1.22,1.22,0,0,0-1.244-1.056,1.2,1.2,0,0,0-.93.387c-.272.314-.366.68-.366,2.1s.094,1.788.366,2.1a1.2,1.2,0,0,0,.93.387,1.23,1.23,0,0,0,1.254-1.056H83a2.628,2.628,0,0,1-2.729,2.352" transform="translate(-57.426 -4.917)" fill="#1a1718"/>
            <path id="패스_4424" data-name="패스 4424" d="M113.857,12.015a2.636,2.636,0,0,1-.875,1.649,2.741,2.741,0,0,1-1.8.561,3.074,3.074,0,0,1-1.088-.183,2.484,2.484,0,0,1-.887-.583,2.122,2.122,0,0,1-.426-.622,3.032,3.032,0,0,1-.213-.714,5.756,5.756,0,0,1-.078-.8q-.013-.418-.013-.879,0-.426.013-.853a5.167,5.167,0,0,1,.087-.814,3.487,3.487,0,0,1,.222-.731,2.027,2.027,0,0,1,.409-.614,2.328,2.328,0,0,1,.9-.592,3.145,3.145,0,0,1,1.079-.183,2.736,2.736,0,0,1,1.8.561,2.644,2.644,0,0,1,.87,1.649h-1.375a2.222,2.222,0,0,0-.157-.439,1.089,1.089,0,0,0-.244-.331,1.029,1.029,0,0,0-.361-.209,1.594,1.594,0,0,0-.518-.074,1.236,1.236,0,0,0-.949.426,1.01,1.01,0,0,0-.187.3,2.077,2.077,0,0,0-.122.427,4.539,4.539,0,0,0-.065.613q-.018.362-.017.866,0,.557.017.922a4.884,4.884,0,0,0,.061.609,1.527,1.527,0,0,0,.118.4,1.106,1.106,0,0,0,.187.274,1.188,1.188,0,0,0,.418.309,1.286,1.286,0,0,0,.531.109,1.476,1.476,0,0,0,.509-.078,1.057,1.057,0,0,0,.365-.222,1.187,1.187,0,0,0,.248-.335,2.725,2.725,0,0,0,.165-.418Z" transform="translate(-80.362 -4.936)" fill="#1a1718"/>
            <path id="패스_4425" data-name="패스 4425" d="M133.18,17.535a1.871,1.871,0,0,0,.091.531,1.458,1.458,0,0,0,.235.448,1.11,1.11,0,0,0,.37.309,1.059,1.059,0,0,0,.5.113,1.444,1.444,0,0,0,.714-.17,3.155,3.155,0,0,0,.583-.422l.714.8a3.215,3.215,0,0,1-.409.348,2.335,2.335,0,0,1-.448.248,2.545,2.545,0,0,1-.526.152,3.547,3.547,0,0,1-.636.052,3.18,3.18,0,0,1-.939-.139,2.045,2.045,0,0,1-.8-.466,2.314,2.314,0,0,1-.562-.866,3.709,3.709,0,0,1-.212-1.349,3.1,3.1,0,0,1,.592-2.019,2.161,2.161,0,0,1,1.775-.722,2.7,2.7,0,0,1,1.083.2,1.968,1.968,0,0,1,.735.54,2.15,2.15,0,0,1,.418.814,3.768,3.768,0,0,1,.131,1.01v.592Zm2.08-.853a2.089,2.089,0,0,0-.283-.957.838.838,0,0,0-.762-.357.887.887,0,0,0-.44.1.961.961,0,0,0-.313.279,1.325,1.325,0,0,0-.2.418,2.426,2.426,0,0,0-.087.513Z" transform="translate(-97.674 -10.657)" fill="#1a1718"/>
            <path id="패스_4426" data-name="패스 4426" d="M155.2,12.234a.578.578,0,0,0,.113.4.478.478,0,0,0,.366.122h.513v1.01h-.862a1.7,1.7,0,0,1-.7-.131,1.23,1.23,0,0,1-.709-.814,2.017,2.017,0,0,1-.074-.544V6.125h.618a1.05,1.05,0,0,1,.379.057.513.513,0,0,1,.222.157.592.592,0,0,1,.109.222,1.042,1.042,0,0,1,.03.252Z" transform="translate(-113.966 -4.537)" fill="#1a1718"/>
            <path id="패스_4427" data-name="패스 4427" d="M167.284,12.234a.578.578,0,0,0,.113.4.478.478,0,0,0,.365.122h.513v1.01h-.862a1.7,1.7,0,0,1-.7-.131,1.23,1.23,0,0,1-.709-.814,2.017,2.017,0,0,1-.074-.544V6.125h.618a1.047,1.047,0,0,1,.378.057.512.512,0,0,1,.222.157.588.588,0,0,1,.109.222,1.03,1.03,0,0,1,.031.252Z" transform="translate(-122.919 -4.537)" fill="#1a1718"/>
            <path id="패스_4428" data-name="패스 4428" d="M9.849,3.983l-2.271-.5-.5-2.218a1.547,1.547,0,0,0-3.045,0l-.5,2.218-2.271.5a1.546,1.546,0,0,0,0,3.043l2.271.5.5,2.217a1.547,1.547,0,0,0,3.045,0l.494-2.213,2.272-.5a1.546,1.546,0,0,0,0-3.043M6.613,9.634l0,.01,0,.01a1.067,1.067,0,0,1-2.1,0l0-.01,0-.01-.5-2.218-.067-.3-.3-.065-2.271-.5-.009,0-.009,0a1.066,1.066,0,0,1,0-2.1l.009,0,.009,0,2.134-.465a1.606,1.606,0,0,0,.293.977,2.328,2.328,0,0,0,1.736.774,1.934,1.934,0,0,1,1.405.586A1.409,1.409,0,0,1,7.1,7.467Zm3.15-3.081-.009,0-.009,0-2.133.469a1.608,1.608,0,0,0-.293-.982A2.328,2.328,0,0,0,5.584,5.27a1.934,1.934,0,0,1-1.405-.586,1.4,1.4,0,0,1-.157-1.137l.485-2.172,0-.01,0-.01a1.067,1.067,0,0,1,2.1,0l0,.01,0,.01.5,2.217.067.3.3.066,2.271.5.009,0,.009,0a1.066,1.066,0,0,1,0,2.1" transform="translate(0 0)" fill="#1a1718"/>
          </g>
        </g>
      </g>
    </g>
  </g>
</svg>
