<svg xmlns="http://www.w3.org/2000/svg" xmlns:xlink="http://www.w3.org/1999/xlink" width="100" height="100" viewBox="0 0 100 100">
  <defs>
    <clipPath id="clip-path">
      <rect id="사각형_3258" data-name="사각형 3258" width="51.943" height="82.589" transform="translate(0 0)" fill="none"/>
    </clipPath>
  </defs>
  <g id="service-ico03" transform="translate(0.321)">
    <rect id="사각형_3028" data-name="사각형 3028" width="100" height="100" transform="translate(-0.321)" fill="none"/>
    <g id="그룹_9325" data-name="그룹 9325" transform="translate(23.707 12.412)">
      <g id="그룹_9324" data-name="그룹 9324" clip-path="url(#clip-path)">
        <path id="패스_3760" data-name="패스 3760" d="M46.6,70.732H28.143V47.675a3,3,0,0,1,3-3H43.6a3,3,0,0,1,3,3Z" fill="none" stroke="#000" stroke-linecap="round" stroke-linejoin="round" stroke-width="2"/>
        <path id="패스_3761" data-name="패스 3761" d="M17.457,63.132H7.343a2,2,0,0,1-2-2V57.7H19.457v3.429A2,2,0,0,1,17.457,63.132Z" fill="none" stroke="#00abe3" stroke-linecap="round" stroke-linejoin="round" stroke-width="2"/>
        <path id="패스_3762" data-name="패스 3762" d="M50.943,70.732H1v7.857a3,3,0,0,0,3,3H47.943a3,3,0,0,0,3-3Z" fill="none" stroke="#000" stroke-linecap="round" stroke-linejoin="round" stroke-width="2"/>
        <line id="선_428" data-name="선 428" x2="26.057" transform="translate(2.086 57.703)" fill="none" stroke="#000" stroke-linecap="round" stroke-linejoin="round" stroke-width="2"/>
        <path id="패스_3763" data-name="패스 3763" d="M22.859,31.829l2.2.8a2,2,0,0,0,2.563-1.2L31.731,20.15a2,2,0,0,0-1.2-2.563l-2.2-.8Z" fill="none" stroke="#000" stroke-linecap="round" stroke-linejoin="round" stroke-width="2"/>
        <path id="패스_3764" data-name="패스 3764" d="M22.859,31.829l2.2.8a2,2,0,0,0,2.563-1.2L31.731,20.15a2,2,0,0,0-1.2-2.563l-2.2-.8Z" fill="none" stroke="#000" stroke-linecap="round" stroke-linejoin="round" stroke-width="2"/>
        <path id="패스_3765" data-name="패스 3765" d="M33.571,39.106v5.569h7.6V35.958a8.971,8.971,0,0,0-2.626-6.341L31.023,22.1l-2.868,7.88,2.79,2.789A8.971,8.971,0,0,1,33.571,39.106Z" fill="none" stroke="#000" stroke-linecap="round" stroke-linejoin="round" stroke-width="2"/>
        <rect id="사각형_3256" data-name="사각형 3256" width="5" height="8.556" transform="translate(21.763 6.116) rotate(-69.987)" fill="none" stroke="#000" stroke-linecap="round" stroke-linejoin="round" stroke-width="2"/>
        <rect id="사각형_3257" data-name="사각형 3257" width="12" height="8.556" transform="translate(7.39 45.58) rotate(-69.987)" fill="none" stroke="#000" stroke-linecap="round" stroke-linejoin="round" stroke-width="2"/>
        <line id="선_429" data-name="선 429" x2="10.336" y2="3.764" transform="translate(7.61 41.404)" fill="none" stroke="#000" stroke-linecap="round" stroke-linejoin="round" stroke-width="2"/>
        <line id="선_430" data-name="선 430" x2="10.336" y2="3.764" transform="translate(22.326 1)" fill="none" stroke="#000" stroke-linecap="round" stroke-linejoin="round" stroke-width="2"/>
        <rect id="사각형_3255" data-name="사각형 3255" width="30" height="11" transform="translate(10.349 33.887) rotate(-69.99)" fill="none" stroke="#00abe3" stroke-linecap="round" stroke-linejoin="round" stroke-width="2"/>
      </g>
    </g>
  </g>
</svg>
