<svg xmlns="http://www.w3.org/2000/svg" xmlns:xlink="http://www.w3.org/1999/xlink" width="152" height="152" viewBox="0 0 152 152">
  <defs>
    <clipPath id="clip-path">
      <path id="패스_3695" data-name="패스 3695" d="M76,1a75,75,0,0,0,0,150h0A75,75,0,0,0,76,1Z" fill="none"/>
    </clipPath>
  </defs>
  <g id="veterinarian-ico01" transform="translate(-384 -1803)">
    <path id="패스_3666" data-name="패스 3666" d="M76,151h0a75,75,0,1,1,75-75,75,75,0,0,1-75,75" transform="translate(384 1803)" fill="#fff"/>
    <g id="그룹_9234" data-name="그룹 9234" transform="translate(384 1803)" clip-path="url(#clip-path)">
      <path id="패스_3667" data-name="패스 3667" d="M103.906,46.5c0,17.949-12.536,32.5-28,32.5s-28-14.551-28-32.5S60.442,14,75.906,14s28,14.551,28,32.5" fill="#222"/>
      <path id="패스_3668" data-name="패스 3668" d="M123.533,127.471a28.933,28.933,0,0,0-25.309-22.092,15.242,15.242,0,0,1-5.774-1.726,14.793,14.793,0,0,1-2.43-1.646c-2.375,2.06-7.57,3.493-13.614,3.493-6.4,0-11.851-1.607-14-3.865a14.813,14.813,0,0,1-2.851,2.018,15.247,15.247,0,0,1-5.774,1.726,28.933,28.933,0,0,0-25.31,22.092l-6.279,26.375H129.813Z" fill="#fff"/>
      <path id="패스_3669" data-name="패스 3669" d="M123.533,127.471a28.933,28.933,0,0,0-25.309-22.092,15.242,15.242,0,0,1-5.774-1.726,14.793,14.793,0,0,1-2.43-1.646c-2.375,2.06-7.57,3.493-13.614,3.493-6.4,0-11.851-1.607-14-3.865a14.813,14.813,0,0,1-2.851,2.018,15.247,15.247,0,0,1-5.774,1.726,28.933,28.933,0,0,0-25.31,22.092l-6.279,26.375H129.813Z" fill="none" stroke="#222" stroke-linecap="round" stroke-linejoin="round" stroke-width="1"/>
      <path id="패스_3670" data-name="패스 3670" d="M85.242,94.659a14.794,14.794,0,0,1-.562-4.036V74.863H67.321v15.76A14.868,14.868,0,0,1,62.4,101.635c2.153,2.258,7.6,3.865,14,3.865,6.044,0,11.239-1.433,13.614-3.492a14.819,14.819,0,0,1-4.778-7.349" fill="#fff"/>
      <path id="패스_3671" data-name="패스 3671" d="M85.242,94.659a14.794,14.794,0,0,1-.562-4.036V74.863H67.321v15.76A14.868,14.868,0,0,1,62.4,101.635c2.153,2.258,7.6,3.865,14,3.865,6.044,0,11.239-1.433,13.614-3.492A14.819,14.819,0,0,1,85.242,94.659Z" fill="none" stroke="#222" stroke-miterlimit="10" stroke-width="1"/>
      <path id="패스_3672" data-name="패스 3672" d="M51.553,54.146s-2.533-4.226-6.908,0,1.122,15.509,4.593,16.377,4.051-5.5,4.051-5.5Z" fill="#fff"/>
      <path id="패스_3673" data-name="패스 3673" d="M51.553,54.146s-2.533-4.226-6.908,0,1.122,15.509,4.593,16.377,4.051-5.5,4.051-5.5Z" fill="none" stroke="#222" stroke-linecap="round" stroke-linejoin="round" stroke-width="1"/>
      <path id="패스_3674" data-name="패스 3674" d="M46.345,58.083s3.472-3.022,5.208,1.961" fill="none" stroke="#00abe3" stroke-linecap="round" stroke-linejoin="round" stroke-width="1"/>
      <path id="패스_3675" data-name="패스 3675" d="M49.879,57.548a5.465,5.465,0,0,0-.93,7.949" fill="none" stroke="#00abe3" stroke-linecap="round" stroke-linejoin="round" stroke-width="1"/>
      <path id="패스_3676" data-name="패스 3676" d="M100.447,54.146s2.533-4.226,6.908,0-1.122,15.509-4.593,16.377-4.051-5.5-4.051-5.5Z" fill="#fff"/>
      <path id="패스_3677" data-name="패스 3677" d="M100.447,54.146s2.533-4.226,6.908,0-1.122,15.509-4.593,16.377-4.051-5.5-4.051-5.5Z" fill="none" stroke="#222" stroke-linecap="round" stroke-linejoin="round" stroke-width="1"/>
      <path id="패스_3678" data-name="패스 3678" d="M105.655,58.083s-3.472-3.022-5.208,1.961" fill="none" stroke="#00abe3" stroke-linecap="round" stroke-linejoin="round" stroke-width="1"/>
      <path id="패스_3679" data-name="패스 3679" d="M102.121,57.548a5.465,5.465,0,0,1,.93,7.949" fill="none" stroke="#00abe3" stroke-linecap="round" stroke-linejoin="round" stroke-width="1"/>
      <path id="패스_3680" data-name="패스 3680" d="M81.244,95.983h0a24.631,24.631,0,0,0,4.3-.384,14.8,14.8,0,0,1-.861-4.976V74.863H67.321v15.76c0,.329-.012.655-.033.98a24.325,24.325,0,0,0,13.956,4.38" fill="#222"/>
      <path id="패스_3681" data-name="패스 3681" d="M81.244,95.983h0a24.631,24.631,0,0,0,4.3-.384,14.8,14.8,0,0,1-.861-4.976V74.863H67.321v15.76c0,.329-.012.655-.033.98A24.325,24.325,0,0,0,81.244,95.983Z" fill="none" stroke="#222" stroke-linecap="round" stroke-linejoin="round" stroke-width="1"/>
      <path id="패스_3682" data-name="패스 3682" d="M76,88.461h0A24.447,24.447,0,0,1,51.553,64.014V41.447a24.447,24.447,0,1,1,48.894,0V64.014A24.447,24.447,0,0,1,76,88.461" fill="#fff"/>
      <path id="패스_3683" data-name="패스 3683" d="M76,88.461h0A24.447,24.447,0,0,1,51.553,64.014V41.447a24.447,24.447,0,1,1,48.894,0V64.014A24.447,24.447,0,0,1,76,88.461Z" fill="none" stroke="#222" stroke-linecap="round" stroke-linejoin="round" stroke-width="1"/>
      <path id="패스_3684" data-name="패스 3684" d="M67.465,57.926a2.893,2.893,0,1,1-2.893-2.893,2.893,2.893,0,0,1,2.893,2.893" fill="#222"/>
      <circle id="타원_139" data-name="타원 139" cx="2.893" cy="2.893" r="2.893" transform="translate(61.679 55.033)" fill="none" stroke="#222" stroke-linecap="round" stroke-linejoin="round" stroke-width="1"/>
      <path id="패스_3685" data-name="패스 3685" d="M84.535,57.926a2.893,2.893,0,1,0,2.893-2.893,2.893,2.893,0,0,0-2.893,2.893" fill="#222"/>
      <circle id="타원_140" data-name="타원 140" cx="2.893" cy="2.893" r="2.893" transform="translate(84.535 55.033)" fill="none" stroke="#222" stroke-linecap="round" stroke-linejoin="round" stroke-width="1"/>
      <path id="패스_3686" data-name="패스 3686" d="M68.333,75.63a24.977,24.977,0,0,0,15.334,0" fill="none" stroke="#222" stroke-linecap="round" stroke-linejoin="round" stroke-width="1"/>
      <path id="패스_3687" data-name="패스 3687" d="M76,56.781s-6.22,10.652-.145,10.652" fill="none" stroke="#222" stroke-linecap="round" stroke-linejoin="round" stroke-width="1"/>
      <line id="선_419" data-name="선 419" x2="6" transform="translate(61.406 50.5)" fill="none" stroke="#222" stroke-linecap="round" stroke-linejoin="round" stroke-width="2"/>
      <line id="선_420" data-name="선 420" x2="6" transform="translate(84.406 50.5)" fill="none" stroke="#222" stroke-linecap="round" stroke-linejoin="round" stroke-width="2"/>
      <path id="패스_3688" data-name="패스 3688" d="M71.263,153.5l-6.857-55-9.6,16.741L67.47,153.5Z" fill="#fff"/>
      <path id="패스_3689" data-name="패스 3689" d="M71.263,153.5l-6.857-55-9.6,16.741L67.47,153.5Z" fill="none" stroke="#00abe3" stroke-linecap="round" stroke-linejoin="round" stroke-width="1"/>
      <path id="패스_3690" data-name="패스 3690" d="M80.549,153.5l6.857-55L97,115.241,84.342,153.5Z" fill="#fff"/>
      <path id="패스_3691" data-name="패스 3691" d="M80.549,153.5l6.857-55L97,115.241,84.342,153.5Z" fill="none" stroke="#00abe3" stroke-linecap="round" stroke-linejoin="round" stroke-width="1"/>
      <path id="패스_3692" data-name="패스 3692" d="M102.132,31.017c-.966,8.7-13.937,14.411-28.972,12.745S46.716,33.689,47.681,24.984,61.617,10.572,76.652,12.238s26.444,10.074,25.48,18.779" fill="#222"/>
      <path id="패스_3693" data-name="패스 3693" d="M100.447,54.146S92.906,45,94.906,38s6.693-7,8.347,0-2.806,16.146-2.806,16.146" fill="#222"/>
      <path id="패스_3694" data-name="패스 3694" d="M51.553,54.146S59.094,45,57.094,38s-6.693-7-8.347,0,2.806,16.146,2.806,16.146" fill="#222"/>
    </g>
    <path id="패스_3696" data-name="패스 3696" d="M76,151h0a75,75,0,1,1,75-75A75,75,0,0,1,76,151Z" transform="translate(384 1803)" fill="none" stroke="#222" stroke-linecap="round" stroke-linejoin="round" stroke-width="2"/>
  </g>
</svg>
