<svg xmlns="http://www.w3.org/2000/svg" xmlns:xlink="http://www.w3.org/1999/xlink" width="152" height="152" viewBox="0 0 152 152">
  <defs>
    <clipPath id="clip-path">
      <path id="패스_3294" data-name="패스 3294" d="M76,1a75,75,0,0,0,0,150h0A75,75,0,0,0,76,1Z" fill="none"/>
    </clipPath>
  </defs>
  <g id="veterinarian-ico05" transform="translate(-895 -1111)">
    <path id="패스_3253" data-name="패스 3253" d="M76,151h0a75,75,0,1,1,75-75,75,75,0,0,1-75,75" transform="translate(895 1111)" fill="#fff"/>
    <g id="그룹_9098" data-name="그룹 9098" transform="translate(895 1111)" clip-path="url(#clip-path)">
      <path id="패스_3254" data-name="패스 3254" d="M108.906,89h-66V77.758A16.758,16.758,0,0,1,59.664,61H92.148a16.758,16.758,0,0,1,16.758,16.758Z" fill="#222"/>
      <path id="패스_3255" data-name="패스 3255" d="M106.906,46.5c0,17.949-13.879,32.5-31,32.5s-31-14.551-31-32.5S58.785,14,75.906,14s31,14.551,31,32.5" fill="#222"/>
      <path id="패스_3256" data-name="패스 3256" d="M123.533,127.471a28.933,28.933,0,0,0-25.309-22.092,15.242,15.242,0,0,1-5.774-1.726,14.793,14.793,0,0,1-2.43-1.646c-2.375,2.06-7.57,3.493-13.614,3.493-6.4,0-11.851-1.607-14-3.865a14.813,14.813,0,0,1-2.851,2.018,15.247,15.247,0,0,1-5.774,1.726,28.933,28.933,0,0,0-25.31,22.092l-6.279,26.375H129.813Z" fill="#fff"/>
      <path id="패스_3257" data-name="패스 3257" d="M123.533,127.471a28.933,28.933,0,0,0-25.309-22.092,15.242,15.242,0,0,1-5.774-1.726,14.793,14.793,0,0,1-2.43-1.646c-2.375,2.06-7.57,3.493-13.614,3.493-6.4,0-11.851-1.607-14-3.865a14.813,14.813,0,0,1-2.851,2.018,15.247,15.247,0,0,1-5.774,1.726,28.933,28.933,0,0,0-25.31,22.092l-6.279,26.375H129.813Z" fill="none" stroke="#222" stroke-linecap="round" stroke-linejoin="round" stroke-width="1"/>
      <path id="패스_3258" data-name="패스 3258" d="M85.242,94.659a14.794,14.794,0,0,1-.562-4.036V74.863H67.321v15.76A14.868,14.868,0,0,1,62.4,101.635c2.153,2.258,7.6,3.865,14,3.865,6.044,0,11.239-1.433,13.614-3.492a14.819,14.819,0,0,1-4.778-7.349" fill="#fff"/>
      <path id="패스_3259" data-name="패스 3259" d="M85.242,94.659a14.794,14.794,0,0,1-.562-4.036V74.863H67.321v15.76A14.868,14.868,0,0,1,62.4,101.635c2.153,2.258,7.6,3.865,14,3.865,6.044,0,11.239-1.433,13.614-3.492A14.819,14.819,0,0,1,85.242,94.659Z" fill="none" stroke="#222" stroke-miterlimit="10" stroke-width="1"/>
      <path id="패스_3260" data-name="패스 3260" d="M51.553,54.146s-2.533-4.226-6.908,0,1.122,15.509,4.593,16.377,4.051-5.5,4.051-5.5Z" fill="#fff"/>
      <path id="패스_3261" data-name="패스 3261" d="M51.553,54.146s-2.533-4.226-6.908,0,1.122,15.509,4.593,16.377,4.051-5.5,4.051-5.5Z" fill="none" stroke="#222" stroke-linecap="round" stroke-linejoin="round" stroke-width="1"/>
      <path id="패스_3262" data-name="패스 3262" d="M46.345,58.083s3.472-3.022,5.208,1.961" fill="none" stroke="#00abe3" stroke-linecap="round" stroke-linejoin="round" stroke-width="1"/>
      <path id="패스_3263" data-name="패스 3263" d="M49.879,57.548a5.465,5.465,0,0,0-.93,7.949" fill="none" stroke="#00abe3" stroke-linecap="round" stroke-linejoin="round" stroke-width="1"/>
      <path id="패스_3264" data-name="패스 3264" d="M100.447,54.146s2.533-4.226,6.908,0-1.122,15.509-4.593,16.377-4.051-5.5-4.051-5.5Z" fill="#fff"/>
      <path id="패스_3265" data-name="패스 3265" d="M100.447,54.146s2.533-4.226,6.908,0-1.122,15.509-4.593,16.377-4.051-5.5-4.051-5.5Z" fill="none" stroke="#222" stroke-linecap="round" stroke-linejoin="round" stroke-width="1"/>
      <path id="패스_3266" data-name="패스 3266" d="M105.655,58.083s-3.472-3.022-5.208,1.961" fill="none" stroke="#00abe3" stroke-linecap="round" stroke-linejoin="round" stroke-width="1"/>
      <path id="패스_3267" data-name="패스 3267" d="M102.121,57.548a5.465,5.465,0,0,1,.93,7.949" fill="none" stroke="#00abe3" stroke-linecap="round" stroke-linejoin="round" stroke-width="1"/>
      <path id="패스_3268" data-name="패스 3268" d="M81.244,95.983h0a24.631,24.631,0,0,0,4.3-.384,14.8,14.8,0,0,1-.861-4.976V74.863H67.321v15.76c0,.329-.012.655-.033.98a24.325,24.325,0,0,0,13.956,4.38" fill="#222"/>
      <path id="패스_3269" data-name="패스 3269" d="M81.244,95.983h0a24.631,24.631,0,0,0,4.3-.384,14.8,14.8,0,0,1-.861-4.976V74.863H67.321v15.76c0,.329-.012.655-.033.98A24.325,24.325,0,0,0,81.244,95.983Z" fill="none" stroke="#222" stroke-linecap="round" stroke-linejoin="round" stroke-width="1"/>
      <path id="패스_3270" data-name="패스 3270" d="M76,88.461h0A24.447,24.447,0,0,1,51.553,64.014V41.447a24.447,24.447,0,1,1,48.894,0V64.014A24.447,24.447,0,0,1,76,88.461" fill="#fff"/>
      <path id="패스_3271" data-name="패스 3271" d="M76,88.461h0A24.447,24.447,0,0,1,51.553,64.014V41.447a24.447,24.447,0,1,1,48.894,0V64.014A24.447,24.447,0,0,1,76,88.461Z" fill="none" stroke="#222" stroke-linecap="round" stroke-linejoin="round" stroke-width="1"/>
      <path id="패스_3272" data-name="패스 3272" d="M67.465,57.925a2.893,2.893,0,1,1-2.893-2.893,2.893,2.893,0,0,1,2.893,2.893" fill="#222"/>
      <circle id="타원_111" data-name="타원 111" cx="2.893" cy="2.893" r="2.893" transform="translate(61.679 55.032)" fill="none" stroke="#222" stroke-linecap="round" stroke-linejoin="round" stroke-width="1"/>
      <path id="패스_3273" data-name="패스 3273" d="M84.535,57.925a2.893,2.893,0,1,0,2.893-2.893,2.893,2.893,0,0,0-2.893,2.893" fill="#222"/>
      <circle id="타원_112" data-name="타원 112" cx="2.893" cy="2.893" r="2.893" transform="translate(84.535 55.032)" fill="none" stroke="#222" stroke-linecap="round" stroke-linejoin="round" stroke-width="1"/>
      <path id="패스_3274" data-name="패스 3274" d="M68.333,75.63a24.977,24.977,0,0,0,15.334,0" fill="none" stroke="#222" stroke-linecap="round" stroke-linejoin="round" stroke-width="1"/>
      <path id="패스_3275" data-name="패스 3275" d="M76,56.781s-6.22,10.652-.145,10.652" fill="none" stroke="#222" stroke-linecap="round" stroke-linejoin="round" stroke-width="1"/>
      <line id="선_308" data-name="선 308" x2="6" transform="translate(61.406 50.5)" fill="none" stroke="#222" stroke-linecap="round" stroke-linejoin="round" stroke-width="1"/>
      <line id="선_309" data-name="선 309" x2="6" transform="translate(84.406 50.5)" fill="none" stroke="#222" stroke-linecap="round" stroke-linejoin="round" stroke-width="1"/>
      <path id="패스_3276" data-name="패스 3276" d="M50.553,50.4S58.906,45,58.906,35c0,0,3,13,42.215,15.4,0,0,3.214-2.119,0-16.258S86.094,16.5,75,16.5,50.408,22.634,47.157,36.817s3.4,13.58,3.4,13.58" fill="#222"/>
      <circle id="타원_113" data-name="타원 113" cx="10.5" cy="10.5" r="10.5" transform="translate(51.406 47.5)" fill="none" stroke="#222" stroke-linecap="round" stroke-linejoin="round" stroke-width="1"/>
      <circle id="타원_114" data-name="타원 114" cx="10.5" cy="10.5" r="10.5" transform="translate(79.406 47.5)" fill="none" stroke="#222" stroke-linecap="round" stroke-linejoin="round" stroke-width="1"/>
      <path id="패스_3277" data-name="패스 3277" d="M72.406,58a5.993,5.993,0,0,1,7,0" fill="none" stroke="#222" stroke-linecap="round" stroke-linejoin="round" stroke-width="1"/>
      <path id="패스_3278" data-name="패스 3278" d="M71.263,153.5l-6.857-55-9.6,16.741L67.47,153.5Z" fill="#fff"/>
      <path id="패스_3279" data-name="패스 3279" d="M71.263,153.5l-6.857-55-9.6,16.741L67.47,153.5Z" fill="none" stroke="#00abe3" stroke-linecap="round" stroke-linejoin="round" stroke-width="1"/>
      <path id="패스_3280" data-name="패스 3280" d="M80.549,153.5l6.857-55L97,115.241,84.342,153.5Z" fill="#fff"/>
      <path id="패스_3281" data-name="패스 3281" d="M80.549,153.5l6.857-55L97,115.241,84.342,153.5Z" fill="none" stroke="#00abe3" stroke-linecap="round" stroke-linejoin="round" stroke-width="1"/>
      <path id="패스_3282" data-name="패스 3282" d="M136.969,149.723H116.1V123.259a3,3,0,0,1,3-3h14.871a3,3,0,0,1,3,3Z" fill="#fff"/>
      <path id="패스_3283" data-name="패스 3283" d="M136.969,149.723H116.1V123.259a3,3,0,0,1,3-3h14.871a3,3,0,0,1,3,3Z" fill="none" stroke="#222" stroke-linecap="round" stroke-linejoin="round" stroke-width="1"/>
      <path id="패스_3284" data-name="패스 3284" d="M104.277,141.129H92.317a2,2,0,0,1-2-2v-4.138h15.96v4.138a2,2,0,0,1-2,2" fill="#fff"/>
      <path id="패스_3285" data-name="패스 3285" d="M104.277,141.129H92.317a2,2,0,0,1-2-2v-4.138h15.96v4.138A2,2,0,0,1,104.277,141.129Z" fill="none" stroke="#222" stroke-linecap="round" stroke-linejoin="round" stroke-width="1"/>
      <path id="패스_3286" data-name="패스 3286" d="M141.88,149.723H85.407V159a3,3,0,0,0,3,3H138.88a3,3,0,0,0,3-3Z" fill="#fff"/>
      <path id="패스_3287" data-name="패스 3287" d="M141.88,149.723H85.407V159a3,3,0,0,0,3,3H138.88a3,3,0,0,0,3-3Z" fill="none" stroke="#222" stroke-linecap="round" stroke-linejoin="round" stroke-width="1"/>
      <line id="선_310" data-name="선 310" x2="29.464" transform="translate(86.634 134.991)" fill="#fff"/>
      <line id="선_311" data-name="선 311" x2="29.464" transform="translate(86.634 134.991)" fill="none" stroke="#222" stroke-linecap="round" stroke-linejoin="round" stroke-width="1"/>
      <path id="패스_3288" data-name="패스 3288" d="M110.124,105.734l2.735,1a2,2,0,0,0,2.564-1.2l4.823-13.252a2,2,0,0,0-1.2-2.563l-2.735-1Z" fill="#fff"/>
      <path id="패스_3289" data-name="패스 3289" d="M110.124,105.734l2.735,1a2,2,0,0,0,2.564-1.2l4.823-13.252a2,2,0,0,0-1.2-2.563l-2.735-1Z" fill="none" stroke="#222" stroke-linecap="round" stroke-linejoin="round" stroke-width="1"/>
      <path id="패스_3290" data-name="패스 3290" d="M110.124,105.734l2.735,1a2,2,0,0,0,2.564-1.2l4.823-13.252a2,2,0,0,0-1.2-2.563l-2.735-1Z" fill="#fff"/>
      <path id="패스_3291" data-name="패스 3291" d="M110.124,105.734l2.735,1a2,2,0,0,0,2.564-1.2l4.823-13.252a2,2,0,0,0-1.2-2.563l-2.735-1Z" fill="none" stroke="#222" stroke-linecap="round" stroke-linejoin="round" stroke-width="1"/>
      <path id="패스_3292" data-name="패스 3292" d="M122.237,113.962v6.3h8.594V110.4a10.144,10.144,0,0,0-2.97-7.17l-8.5-8.5-3.243,8.91,3.154,3.154a10.139,10.139,0,0,1,2.97,7.17" fill="#fff"/>
      <path id="패스_3293" data-name="패스 3293" d="M122.237,113.962v6.3h8.594V110.4a10.144,10.144,0,0,0-2.97-7.17l-8.5-8.5-3.243,8.91,3.154,3.154A10.139,10.139,0,0,1,122.237,113.962Z" fill="none" stroke="#222" stroke-linecap="round" stroke-linejoin="round" stroke-width="1"/>
      <rect id="사각형_3157" data-name="사각형 3157" width="33.923" height="12.438" transform="matrix(0.342, -0.94, 0.94, 0.342, 95.977, 108.06)" fill="#fff"/>
      <rect id="사각형_3158" data-name="사각형 3158" width="33.923" height="12.438" transform="matrix(0.342, -0.94, 0.94, 0.342, 95.977, 108.06)" fill="none" stroke="#222" stroke-linecap="round" stroke-linejoin="round" stroke-width="1"/>
      <rect id="사각형_3159" data-name="사각형 3159" width="5.653" height="9.674" transform="translate(108.885 76.659) rotate(-69.986)" fill="#fff"/>
      <rect id="사각형_3160" data-name="사각형 3160" width="5.653" height="9.674" transform="translate(108.885 76.659) rotate(-69.986)" fill="none" stroke="#222" stroke-linecap="round" stroke-linejoin="round" stroke-width="1"/>
      <rect id="사각형_3161" data-name="사각형 3161" width="13.569" height="9.675" transform="translate(92.632 121.283) rotate(-69.986)" fill="#fff"/>
      <rect id="사각형_3162" data-name="사각형 3162" width="13.569" height="9.675" transform="translate(92.632 121.283) rotate(-69.986)" fill="none" stroke="#222" stroke-linecap="round" stroke-linejoin="round" stroke-width="1"/>
      <line id="선_312" data-name="선 312" x2="11.687" y2="4.257" transform="translate(92.882 116.561)" fill="#fff"/>
      <line id="선_313" data-name="선 313" x2="11.687" y2="4.257" transform="translate(92.882 116.561)" fill="none" stroke="#222" stroke-linecap="round" stroke-linejoin="round" stroke-width="1"/>
      <line id="선_314" data-name="선 314" x2="11.687" y2="4.257" transform="translate(109.521 70.874)" fill="#fff"/>
      <line id="선_315" data-name="선 315" x2="11.687" y2="4.257" transform="translate(109.521 70.874)" fill="none" stroke="#222" stroke-linecap="round" stroke-linejoin="round" stroke-width="1"/>
    </g>
    <path id="패스_3295" data-name="패스 3295" d="M76,151h0a75,75,0,1,1,75-75A75,75,0,0,1,76,151Z" transform="translate(895 1111)" fill="none" stroke="#222" stroke-linecap="round" stroke-linejoin="round" stroke-width="2"/>
  </g>
</svg>
