<svg xmlns="http://www.w3.org/2000/svg" xmlns:xlink="http://www.w3.org/1999/xlink" width="152" height="152" viewBox="0 0 152 152">
  <defs>
    <clipPath id="clip-path">
      <path id="패스_3661" data-name="패스 3661" d="M76,1a75,75,0,0,0,0,150h0A75,75,0,0,0,76,1Z" fill="none"/>
    </clipPath>
  </defs>
  <g id="veterinarian-ico06" transform="translate(-306 -2119)">
    <path id="패스_3617" data-name="패스 3617" d="M76,151h0a75,75,0,1,1,75-75,75,75,0,0,1-75,75" transform="translate(306 2119)" fill="#fff"/>
    <g id="그룹_9156" data-name="그룹 9156" transform="translate(306 2119)">
      <g id="그룹_9155" data-name="그룹 9155" clip-path="url(#clip-path)">
        <path id="패스_3618" data-name="패스 3618" d="M106.906,46.5c0,17.949-13.879,32.5-31,32.5s-31-14.551-31-32.5S58.785,14,75.906,14s31,14.551,31,32.5" fill="#222"/>
        <path id="패스_3619" data-name="패스 3619" d="M80.906,105.5c0,17.949-7.163,32.5-16,32.5s-16-14.551-16-32.5,7.163-32.5,16-32.5,16,14.551,16,32.5" fill="#222"/>
        <path id="패스_3620" data-name="패스 3620" d="M123.533,127.471a28.933,28.933,0,0,0-25.309-22.092,15.242,15.242,0,0,1-5.774-1.726,14.793,14.793,0,0,1-2.43-1.646c-2.375,2.06-7.57,3.493-13.614,3.493-6.4,0-11.851-1.607-14-3.865a14.813,14.813,0,0,1-2.851,2.018,15.247,15.247,0,0,1-5.774,1.726,28.933,28.933,0,0,0-25.31,22.092l-6.279,26.375H129.813Z" fill="#fff"/>
        <path id="패스_3621" data-name="패스 3621" d="M123.533,127.471a28.933,28.933,0,0,0-25.309-22.092,15.242,15.242,0,0,1-5.774-1.726,14.793,14.793,0,0,1-2.43-1.646c-2.375,2.06-7.57,3.493-13.614,3.493-6.4,0-11.851-1.607-14-3.865a14.813,14.813,0,0,1-2.851,2.018,15.247,15.247,0,0,1-5.774,1.726,28.933,28.933,0,0,0-25.31,22.092l-6.279,26.375H129.813Z" fill="none" stroke="#222" stroke-linecap="round" stroke-linejoin="round" stroke-width="1"/>
        <path id="패스_3622" data-name="패스 3622" d="M85.242,94.659a14.794,14.794,0,0,1-.562-4.036V74.863H67.321v15.76A14.868,14.868,0,0,1,62.4,101.635c2.153,2.258,7.6,3.865,14,3.865,6.044,0,11.239-1.433,13.614-3.492a14.819,14.819,0,0,1-4.778-7.349" fill="#fff"/>
        <path id="패스_3623" data-name="패스 3623" d="M85.242,94.659a14.794,14.794,0,0,1-.562-4.036V74.863H67.321v15.76A14.868,14.868,0,0,1,62.4,101.635c2.153,2.258,7.6,3.865,14,3.865,6.044,0,11.239-1.433,13.614-3.492A14.819,14.819,0,0,1,85.242,94.659Z" fill="none" stroke="#222" stroke-miterlimit="10" stroke-width="1"/>
        <path id="패스_3624" data-name="패스 3624" d="M51.553,54.146s-2.533-4.226-6.908,0,1.122,15.509,4.593,16.377,4.051-5.5,4.051-5.5Z" fill="#fff"/>
        <path id="패스_3625" data-name="패스 3625" d="M51.553,54.146s-2.533-4.226-6.908,0,1.122,15.509,4.593,16.377,4.051-5.5,4.051-5.5Z" fill="none" stroke="#222" stroke-linecap="round" stroke-linejoin="round" stroke-width="1"/>
        <path id="패스_3626" data-name="패스 3626" d="M46.345,58.083s3.472-3.022,5.208,1.961" fill="none" stroke="#00abe3" stroke-linecap="round" stroke-linejoin="round" stroke-width="1"/>
        <path id="패스_3627" data-name="패스 3627" d="M49.879,57.548a5.465,5.465,0,0,0-.93,7.949" fill="none" stroke="#00abe3" stroke-linecap="round" stroke-linejoin="round" stroke-width="1"/>
        <path id="패스_3628" data-name="패스 3628" d="M100.447,54.146s2.533-4.226,6.908,0-1.122,15.509-4.593,16.377-4.051-5.5-4.051-5.5Z" fill="#fff"/>
        <path id="패스_3629" data-name="패스 3629" d="M100.447,54.146s2.533-4.226,6.908,0-1.122,15.509-4.593,16.377-4.051-5.5-4.051-5.5Z" fill="none" stroke="#222" stroke-linecap="round" stroke-linejoin="round" stroke-width="1"/>
        <path id="패스_3630" data-name="패스 3630" d="M105.655,58.083s-3.472-3.022-5.208,1.961" fill="none" stroke="#00abe3" stroke-linecap="round" stroke-linejoin="round" stroke-width="1"/>
        <path id="패스_3631" data-name="패스 3631" d="M102.121,57.548a5.465,5.465,0,0,1,.93,7.949" fill="none" stroke="#00abe3" stroke-linecap="round" stroke-linejoin="round" stroke-width="1"/>
        <path id="패스_3632" data-name="패스 3632" d="M81.244,95.983h0a24.631,24.631,0,0,0,4.3-.384,14.8,14.8,0,0,1-.861-4.976V74.863H67.321v15.76c0,.329-.012.655-.033.98a24.325,24.325,0,0,0,13.956,4.38" fill="#222"/>
        <path id="패스_3633" data-name="패스 3633" d="M81.244,95.983h0a24.631,24.631,0,0,0,4.3-.384,14.8,14.8,0,0,1-.861-4.976V74.863H67.321v15.76c0,.329-.012.655-.033.98A24.325,24.325,0,0,0,81.244,95.983Z" fill="none" stroke="#222" stroke-linecap="round" stroke-linejoin="round" stroke-width="1"/>
        <path id="패스_3634" data-name="패스 3634" d="M76,88.461h0A24.447,24.447,0,0,1,51.553,64.014V41.447a24.447,24.447,0,1,1,48.894,0V64.014A24.447,24.447,0,0,1,76,88.461" fill="#fff"/>
        <path id="패스_3635" data-name="패스 3635" d="M76,88.461h0A24.447,24.447,0,0,1,51.553,64.014V41.447a24.447,24.447,0,1,1,48.894,0V64.014A24.447,24.447,0,0,1,76,88.461Z" fill="none" stroke="#222" stroke-linecap="round" stroke-linejoin="round" stroke-width="1"/>
        <path id="패스_3636" data-name="패스 3636" d="M67.465,57.925a2.893,2.893,0,1,1-2.893-2.893,2.893,2.893,0,0,1,2.893,2.893" fill="#222"/>
        <circle id="타원_137" data-name="타원 137" cx="2.893" cy="2.893" r="2.893" transform="translate(61.679 55.032)" fill="none" stroke="#222" stroke-linecap="round" stroke-linejoin="round" stroke-width="1"/>
        <path id="패스_3637" data-name="패스 3637" d="M84.535,57.925a2.893,2.893,0,1,0,2.893-2.893,2.893,2.893,0,0,0-2.893,2.893" fill="#222"/>
        <circle id="타원_138" data-name="타원 138" cx="2.893" cy="2.893" r="2.893" transform="translate(84.535 55.032)" fill="none" stroke="#222" stroke-linecap="round" stroke-linejoin="round" stroke-width="1"/>
        <path id="패스_3638" data-name="패스 3638" d="M68.333,72.63a24.977,24.977,0,0,0,15.334,0" fill="none" stroke="#222" stroke-linecap="round" stroke-linejoin="round" stroke-width="1"/>
        <path id="패스_3639" data-name="패스 3639" d="M76,56.781s-6.22,10.652-.145,10.652" fill="none" stroke="#222" stroke-linecap="round" stroke-linejoin="round" stroke-width="1"/>
        <path id="패스_3640" data-name="패스 3640" d="M71.263,153.5l-6.857-55-9.6,16.741L67.47,153.5Z" fill="#fff"/>
        <path id="패스_3641" data-name="패스 3641" d="M71.263,153.5l-6.857-55-9.6,16.741L67.47,153.5Z" fill="none" stroke="#00abe3" stroke-linecap="round" stroke-linejoin="round" stroke-width="1"/>
        <path id="패스_3642" data-name="패스 3642" d="M80.549,153.5l6.857-55L97,115.241,84.342,153.5Z" fill="#fff"/>
        <path id="패스_3643" data-name="패스 3643" d="M80.549,153.5l6.857-55L97,115.241,84.342,153.5Z" fill="none" stroke="#00abe3" stroke-linecap="round" stroke-linejoin="round" stroke-width="1"/>
        <path id="패스_3644" data-name="패스 3644" d="M136.969,149.723H116.1V123.259a3,3,0,0,1,3-3h14.871a3,3,0,0,1,3,3Z" fill="#fff"/>
        <path id="패스_3645" data-name="패스 3645" d="M136.969,149.723H116.1V123.259a3,3,0,0,1,3-3h14.871a3,3,0,0,1,3,3Z" fill="none" stroke="#222" stroke-linecap="round" stroke-linejoin="round" stroke-width="1"/>
        <path id="패스_3646" data-name="패스 3646" d="M104.277,141.129H92.317a2,2,0,0,1-2-2v-4.138h15.96v4.138a2,2,0,0,1-2,2" fill="#fff"/>
        <path id="패스_3647" data-name="패스 3647" d="M104.277,141.129H92.317a2,2,0,0,1-2-2v-4.138h15.96v4.138A2,2,0,0,1,104.277,141.129Z" fill="none" stroke="#222" stroke-linecap="round" stroke-linejoin="round" stroke-width="1"/>
        <path id="패스_3648" data-name="패스 3648" d="M141.88,149.723H85.407V159a3,3,0,0,0,3,3H138.88a3,3,0,0,0,3-3Z" fill="#fff"/>
        <path id="패스_3649" data-name="패스 3649" d="M141.88,149.723H85.407V159a3,3,0,0,0,3,3H138.88a3,3,0,0,0,3-3Z" fill="none" stroke="#222" stroke-linecap="round" stroke-linejoin="round" stroke-width="1"/>
        <line id="선_407" data-name="선 407" x2="29.464" transform="translate(86.634 134.991)" fill="#fff"/>
        <line id="선_408" data-name="선 408" x2="29.464" transform="translate(86.634 134.991)" fill="none" stroke="#222" stroke-linecap="round" stroke-linejoin="round" stroke-width="1"/>
        <path id="패스_3650" data-name="패스 3650" d="M110.124,105.734l2.735,1a2,2,0,0,0,2.564-1.2l4.823-13.252a2,2,0,0,0-1.2-2.563l-2.735-1Z" fill="#fff"/>
        <path id="패스_3651" data-name="패스 3651" d="M110.124,105.734l2.735,1a2,2,0,0,0,2.564-1.2l4.823-13.252a2,2,0,0,0-1.2-2.563l-2.735-1Z" fill="none" stroke="#222" stroke-linecap="round" stroke-linejoin="round" stroke-width="1"/>
        <path id="패스_3652" data-name="패스 3652" d="M110.124,105.734l2.735,1a2,2,0,0,0,2.564-1.2l4.823-13.252a2,2,0,0,0-1.2-2.563l-2.735-1Z" fill="#fff"/>
        <path id="패스_3653" data-name="패스 3653" d="M110.124,105.734l2.735,1a2,2,0,0,0,2.564-1.2l4.823-13.252a2,2,0,0,0-1.2-2.563l-2.735-1Z" fill="none" stroke="#222" stroke-linecap="round" stroke-linejoin="round" stroke-width="1"/>
        <path id="패스_3654" data-name="패스 3654" d="M122.237,113.962v6.3h8.594V110.4a10.144,10.144,0,0,0-2.97-7.17l-8.5-8.5-3.243,8.91,3.154,3.154a10.139,10.139,0,0,1,2.97,7.17" fill="#fff"/>
        <path id="패스_3655" data-name="패스 3655" d="M122.237,113.962v6.3h8.594V110.4a10.144,10.144,0,0,0-2.97-7.17l-8.5-8.5-3.243,8.91,3.154,3.154A10.139,10.139,0,0,1,122.237,113.962Z" fill="none" stroke="#222" stroke-linecap="round" stroke-linejoin="round" stroke-width="1"/>
        <rect id="사각형_3188" data-name="사각형 3188" width="33.923" height="12.438" transform="matrix(0.342, -0.94, 0.94, 0.342, 95.977, 108.06)" fill="#fff"/>
        <rect id="사각형_3189" data-name="사각형 3189" width="33.923" height="12.438" transform="matrix(0.342, -0.94, 0.94, 0.342, 95.977, 108.06)" fill="none" stroke="#222" stroke-linecap="round" stroke-linejoin="round" stroke-width="1"/>
        <rect id="사각형_3190" data-name="사각형 3190" width="5.653" height="9.674" transform="translate(108.885 76.659) rotate(-69.986)" fill="#fff"/>
        <rect id="사각형_3191" data-name="사각형 3191" width="5.653" height="9.674" transform="translate(108.885 76.659) rotate(-69.986)" fill="none" stroke="#222" stroke-linecap="round" stroke-linejoin="round" stroke-width="1"/>
        <rect id="사각형_3192" data-name="사각형 3192" width="13.569" height="9.675" transform="translate(92.632 121.283) rotate(-69.986)" fill="#fff"/>
        <rect id="사각형_3193" data-name="사각형 3193" width="13.569" height="9.675" transform="translate(92.632 121.283) rotate(-69.986)" fill="none" stroke="#222" stroke-linecap="round" stroke-linejoin="round" stroke-width="1"/>
        <line id="선_409" data-name="선 409" x2="11.687" y2="4.257" transform="translate(92.882 116.561)" fill="#fff"/>
        <line id="선_410" data-name="선 410" x2="11.687" y2="4.257" transform="translate(92.882 116.561)" fill="none" stroke="#222" stroke-linecap="round" stroke-linejoin="round" stroke-width="1"/>
        <line id="선_411" data-name="선 411" x2="11.687" y2="4.257" transform="translate(109.521 70.874)" fill="#fff"/>
        <line id="선_412" data-name="선 412" x2="11.687" y2="4.257" transform="translate(109.521 70.874)" fill="none" stroke="#222" stroke-linecap="round" stroke-linejoin="round" stroke-width="1"/>
        <path id="패스_3656" data-name="패스 3656" d="M46.465,36.323C50.54,43.1,62.177,48,75.906,48s25.366-4.9,29.441-11.677C101.272,23.36,89.635,14,75.906,14S50.54,23.36,46.465,36.323" fill="#222"/>
        <path id="패스_3657" data-name="패스 3657" d="M54.906,46c0,4.418-1.343,8-3,8s-3-3.582-3-8,1.343-8,3-8,3,3.582,3,8" fill="#222"/>
        <path id="패스_3658" data-name="패스 3658" d="M96.906,46c0,4.418,1.343,8,3,8s3-3.582,3-8-1.343-8-3-8-3,3.582-3,8" fill="#222"/>
        <path id="패스_3659" data-name="패스 3659" d="M68.465,50s-5.059-2.5-9.059.5" fill="none" stroke="#222" stroke-linecap="round" stroke-linejoin="round" stroke-width="1"/>
        <path id="패스_3660" data-name="패스 3660" d="M83.347,50s5.059-2.5,9.059.5" fill="none" stroke="#222" stroke-linecap="round" stroke-linejoin="round" stroke-width="1"/>
      </g>
    </g>
    <path id="패스_3662" data-name="패스 3662" d="M76,151h0a75,75,0,1,1,75-75A75,75,0,0,1,76,151Z" transform="translate(306 2119)" fill="none" stroke="#222" stroke-linecap="round" stroke-linejoin="round" stroke-width="2"/>
  </g>
</svg>
