<svg xmlns="http://www.w3.org/2000/svg" xmlns:xlink="http://www.w3.org/1999/xlink" width="152" height="152" viewBox="0 0 152 152">
  <defs>
    <clipPath id="clip-path">
      <path id="패스_3412" data-name="패스 3412" d="M76,1a75,75,0,0,0,0,150h0A75,75,0,0,0,76,1Z" fill="none"/>
    </clipPath>
  </defs>
  <g id="veterinarian-ico03" transform="translate(-1193 -1264)">
    <path id="패스_3414" data-name="패스 3414" d="M76,151h0a75,75,0,1,1,75-75A75,75,0,0,1,76,151Z" transform="translate(1193 1264)" fill="#fff"/>
    <g id="그룹_9110" data-name="그룹 9110" transform="translate(1193 1264)">
      <g id="그룹_9109" data-name="그룹 9109" clip-path="url(#clip-path)">
        <path id="패스_3369" data-name="패스 3369" d="M112.906,88c0,18.225-16.565,33-37,33s-37-14.775-37-33,16.565-33,37-33,37,14.775,37,33" fill="#222"/>
        <path id="패스_3370" data-name="패스 3370" d="M123.533,127.471a28.933,28.933,0,0,0-25.309-22.092,15.242,15.242,0,0,1-5.774-1.726,14.793,14.793,0,0,1-2.43-1.646c-2.375,2.06-7.57,3.493-13.614,3.493-6.4,0-11.851-1.607-14-3.865a14.813,14.813,0,0,1-2.851,2.018,15.247,15.247,0,0,1-5.774,1.726,28.933,28.933,0,0,0-25.31,22.092l-6.279,26.375H129.813Z" fill="#fff"/>
        <path id="패스_3371" data-name="패스 3371" d="M123.533,127.471a28.933,28.933,0,0,0-25.309-22.092,15.242,15.242,0,0,1-5.774-1.726,14.793,14.793,0,0,1-2.43-1.646c-2.375,2.06-7.57,3.493-13.614,3.493-6.4,0-11.851-1.607-14-3.865a14.813,14.813,0,0,1-2.851,2.018,15.247,15.247,0,0,1-5.774,1.726,28.933,28.933,0,0,0-25.31,22.092l-6.279,26.375H129.813Z" fill="none" stroke="#222" stroke-linecap="round" stroke-linejoin="round" stroke-width="1"/>
        <path id="패스_3372" data-name="패스 3372" d="M85.242,94.659a14.794,14.794,0,0,1-.562-4.036V74.863H67.321v15.76A14.868,14.868,0,0,1,62.4,101.635c2.153,2.258,7.6,3.865,14,3.865,6.044,0,11.239-1.433,13.614-3.492a14.819,14.819,0,0,1-4.778-7.349" fill="#fff"/>
        <path id="패스_3373" data-name="패스 3373" d="M85.242,94.659a14.794,14.794,0,0,1-.562-4.036V74.863H67.321v15.76A14.868,14.868,0,0,1,62.4,101.635c2.153,2.258,7.6,3.865,14,3.865,6.044,0,11.239-1.433,13.614-3.492A14.819,14.819,0,0,1,85.242,94.659Z" fill="none" stroke="#222" stroke-miterlimit="10" stroke-width="1"/>
        <path id="패스_3374" data-name="패스 3374" d="M51.553,54.146s-2.533-4.226-6.908,0,1.122,15.509,4.593,16.377,4.051-5.5,4.051-5.5Z" fill="#fff"/>
        <path id="패스_3375" data-name="패스 3375" d="M51.553,54.146s-2.533-4.226-6.908,0,1.122,15.509,4.593,16.377,4.051-5.5,4.051-5.5Z" fill="none" stroke="#222" stroke-linecap="round" stroke-linejoin="round" stroke-width="1"/>
        <path id="패스_3376" data-name="패스 3376" d="M46.345,58.083s3.472-3.022,5.208,1.961" fill="none" stroke="#00abe3" stroke-linecap="round" stroke-linejoin="round" stroke-width="1"/>
        <path id="패스_3377" data-name="패스 3377" d="M49.879,57.548a5.465,5.465,0,0,0-.93,7.949" fill="none" stroke="#00abe3" stroke-linecap="round" stroke-linejoin="round" stroke-width="1"/>
        <path id="패스_3378" data-name="패스 3378" d="M100.447,54.146s2.533-4.226,6.908,0-1.122,15.509-4.593,16.377-4.051-5.5-4.051-5.5Z" fill="#fff"/>
        <path id="패스_3379" data-name="패스 3379" d="M100.447,54.146s2.533-4.226,6.908,0-1.122,15.509-4.593,16.377-4.051-5.5-4.051-5.5Z" fill="none" stroke="#222" stroke-linecap="round" stroke-linejoin="round" stroke-width="1"/>
        <path id="패스_3380" data-name="패스 3380" d="M105.655,58.083s-3.472-3.022-5.208,1.961" fill="none" stroke="#00abe3" stroke-linecap="round" stroke-linejoin="round" stroke-width="1"/>
        <path id="패스_3381" data-name="패스 3381" d="M102.121,57.548a5.465,5.465,0,0,1,.93,7.949" fill="none" stroke="#00abe3" stroke-linecap="round" stroke-linejoin="round" stroke-width="1"/>
        <path id="패스_3382" data-name="패스 3382" d="M81.244,95.983h0a24.631,24.631,0,0,0,4.3-.384,14.8,14.8,0,0,1-.861-4.976V74.863H67.321v15.76c0,.329-.012.655-.033.98a24.325,24.325,0,0,0,13.956,4.38" fill="#222"/>
        <path id="패스_3383" data-name="패스 3383" d="M81.244,95.983h0a24.631,24.631,0,0,0,4.3-.384,14.8,14.8,0,0,1-.861-4.976V74.863H67.321v15.76c0,.329-.012.655-.033.98A24.325,24.325,0,0,0,81.244,95.983Z" fill="none" stroke="#222" stroke-linecap="round" stroke-linejoin="round" stroke-width="1"/>
        <path id="패스_3384" data-name="패스 3384" d="M76,88.461h0A24.447,24.447,0,0,1,51.553,64.014V41.447a24.447,24.447,0,1,1,48.894,0V64.014A24.447,24.447,0,0,1,76,88.461" fill="#fff"/>
        <path id="패스_3385" data-name="패스 3385" d="M76,88.461h0A24.447,24.447,0,0,1,51.553,64.014V41.447a24.447,24.447,0,1,1,48.894,0V64.014A24.447,24.447,0,0,1,76,88.461Z" fill="none" stroke="#222" stroke-linecap="round" stroke-linejoin="round" stroke-width="1"/>
        <path id="패스_3386" data-name="패스 3386" d="M67.465,56.926a2.893,2.893,0,1,1-2.893-2.893,2.893,2.893,0,0,1,2.893,2.893" fill="#222"/>
        <circle id="타원_119" data-name="타원 119" cx="2.893" cy="2.893" r="2.893" transform="translate(61.679 54.033)" fill="none" stroke="#222" stroke-linecap="round" stroke-linejoin="round" stroke-width="1"/>
        <path id="패스_3387" data-name="패스 3387" d="M58.786,51.378s3.761-6.076,9.547-3.761" fill="none" stroke="#222" stroke-linecap="round" stroke-linejoin="round" stroke-width="1"/>
        <path id="패스_3388" data-name="패스 3388" d="M84.535,56.926a2.893,2.893,0,1,0,2.893-2.893,2.893,2.893,0,0,0-2.893,2.893" fill="#222"/>
        <circle id="타원_120" data-name="타원 120" cx="2.893" cy="2.893" r="2.893" transform="translate(84.535 54.033)" fill="none" stroke="#222" stroke-linecap="round" stroke-linejoin="round" stroke-width="1"/>
        <path id="패스_3389" data-name="패스 3389" d="M93.214,51.378s-3.761-6.076-9.547-3.761" fill="none" stroke="#222" stroke-linecap="round" stroke-linejoin="round" stroke-width="1"/>
        <path id="패스_3390" data-name="패스 3390" d="M68.333,72.63a24.977,24.977,0,0,0,15.334,0" fill="none" stroke="#222" stroke-linecap="round" stroke-linejoin="round" stroke-width="1"/>
        <path id="패스_3391" data-name="패스 3391" d="M76,56.781s-6.22,10.652-.145,10.652" fill="none" stroke="#222" stroke-linecap="round" stroke-linejoin="round" stroke-width="1"/>
        <rect id="사각형_3165" data-name="사각형 3165" width="16" height="3" transform="translate(98.406 132.5)" fill="#fff"/>
        <rect id="사각형_3166" data-name="사각형 3166" width="16" height="3" transform="translate(98.406 132.5)" fill="none" stroke="#00abe3" stroke-linecap="round" stroke-linejoin="round" stroke-width="1"/>
        <path id="패스_3392" data-name="패스 3392" d="M67.321,153.5V92.623C65.735,92.246,53.907,103,53.289,105.848c-.381,1.76-.054,4.846.807,10.072l4.69,3.943-3.662,2.006c.343,1.932.723,4.052,1.14,6.4,1.508,8.486,5.607,18.854,8.368,25.231Z" fill="#fff"/>
        <path id="패스_3393" data-name="패스 3393" d="M67.321,153.5V92.623C65.735,92.246,53.907,103,53.289,105.848c-.381,1.76-.054,4.846.807,10.072l4.69,3.943-3.662,2.006c.343,1.932.723,4.052,1.14,6.4,1.508,8.486,5.607,18.854,8.368,25.231Z" fill="none" stroke="#00abe3" stroke-linecap="round" stroke-linejoin="round" stroke-width="1"/>
        <path id="패스_3394" data-name="패스 3394" d="M84.492,153.5V92.623c1.586-.377,13.414,10.377,14.032,13.225.381,1.76.054,4.846-.807,10.072l-4.69,3.943,3.662,2.006c-.343,1.932-.723,4.052-1.14,6.4-1.508,8.486-5.607,18.854-8.368,25.231Z" fill="#fff"/>
        <path id="패스_3395" data-name="패스 3395" d="M84.492,153.5V92.623c1.586-.377,13.414,10.377,14.032,13.225.381,1.76.054,4.846-.807,10.072l-4.69,3.943,3.662,2.006c-.343,1.932-.723,4.052-1.14,6.4-1.508,8.486-5.607,18.854-8.368,25.231Z" fill="none" stroke="#00abe3" stroke-linecap="round" stroke-linejoin="round" stroke-width="1"/>
        <path id="패스_3396" data-name="패스 3396" d="M104.046,37.24a14.816,14.816,0,0,0-2.461-4.863,11.267,11.267,0,0,0,.118-1.627c0-9.8-11.417-17.75-25.5-17.75S50.7,20.947,50.7,30.75a11.128,11.128,0,0,0,.118,1.627A14.816,14.816,0,0,0,48.36,37.24c-1.75,6.24-1.251,16.76,3.4,16.907,2.909.091,6.427-7.651,8.652-13.454C64.752,41.738,70.236,42,76.2,42S87.654,41.738,92,40.693c2.225,5.8,5.743,13.545,8.652,13.454,4.647-.147,5.145-10.667,3.4-16.907" fill="#222"/>
        <path id="패스_3397" data-name="패스 3397" d="M37.406,143.5h-21V113.125a8.626,8.626,0,0,1,8.625-8.625H37.406Z" fill="#fff"/>
        <path id="패스_3398" data-name="패스 3398" d="M37.406,143.5h-21V113.125a8.626,8.626,0,0,1,8.625-8.625H37.406Z" fill="none" stroke="#000" stroke-linecap="round" stroke-linejoin="round" stroke-width="1"/>
        <path id="패스_3399" data-name="패스 3399" d="M59.906,94.778h-18a1,1,0,0,1-1-1V90.222a1,1,0,0,1,1-1h18a1,1,0,0,1,1,1v3.556a1,1,0,0,1-1,1" fill="#fff"/>
        <rect id="사각형_3167" data-name="사각형 3167" width="20" height="5.556" rx="1" transform="translate(40.906 89.222)" fill="none" stroke="#000" stroke-linecap="round" stroke-linejoin="round" stroke-width="1"/>
        <path id="패스_3400" data-name="패스 3400" d="M50.906,140.778h0A7.778,7.778,0,0,1,43.128,133V94.778H58.684V133a7.778,7.778,0,0,1-7.778,7.778" fill="#fff"/>
        <path id="패스_3401" data-name="패스 3401" d="M50.906,140.778h0A7.778,7.778,0,0,1,43.128,133V94.778H58.684V133A7.778,7.778,0,0,1,50.906,140.778Z" fill="none" stroke="#000" stroke-linecap="round" stroke-linejoin="round" stroke-width="1"/>
        <path id="패스_3402" data-name="패스 3402" d="M50.906,138h0a5,5,0,0,0,5-5V94.778h-10V133a5,5,0,0,0,5,5" fill="#fff"/>
        <path id="패스_3403" data-name="패스 3403" d="M50.906,138h0a5,5,0,0,0,5-5V94.778h-10V133A5,5,0,0,0,50.906,138Z" fill="none" stroke="#000" stroke-linecap="round" stroke-linejoin="round" stroke-width="1"/>
        <line id="선_318" data-name="선 318" y2="2.222" transform="translate(45.351 89.222)" fill="#fff"/>
        <line id="선_319" data-name="선 319" y2="2.222" transform="translate(45.351 89.222)" fill="none" stroke="#000" stroke-linecap="round" stroke-linejoin="round" stroke-width="1"/>
        <line id="선_320" data-name="선 320" y2="2.222" transform="translate(50.906 89.222)" fill="#fff"/>
        <line id="선_321" data-name="선 321" y2="2.222" transform="translate(50.906 89.222)" fill="none" stroke="#000" stroke-linecap="round" stroke-linejoin="round" stroke-width="1"/>
        <line id="선_322" data-name="선 322" y2="2.222" transform="translate(56.462 89.222)" fill="#fff"/>
        <line id="선_323" data-name="선 323" y2="2.222" transform="translate(56.462 89.222)" fill="none" stroke="#000" stroke-linecap="round" stroke-linejoin="round" stroke-width="1"/>
        <line id="선_324" data-name="선 324" x2="10" transform="translate(45.906 105.5)" fill="#fff"/>
        <line id="선_325" data-name="선 325" x2="10" transform="translate(45.906 105.5)" fill="none" stroke="#000" stroke-linecap="round" stroke-linejoin="round" stroke-width="1"/>
        <path id="패스_3404" data-name="패스 3404" d="M32.406,104.5h14.5a2.5,2.5,0,0,1,0,5h-13.5" fill="#fff"/>
        <path id="패스_3405" data-name="패스 3405" d="M32.406,104.5h14.5a2.5,2.5,0,0,1,0,5h-13.5" fill="none" stroke="#000" stroke-linecap="round" stroke-linejoin="round" stroke-width="1"/>
        <path id="패스_3406" data-name="패스 3406" d="M36.406,109.5h13.5a2.5,2.5,0,0,1,0,5h-14.5" fill="#fff"/>
        <path id="패스_3407" data-name="패스 3407" d="M36.406,109.5h13.5a2.5,2.5,0,0,1,0,5h-14.5" fill="none" stroke="#000" stroke-linecap="round" stroke-linejoin="round" stroke-width="1"/>
        <path id="패스_3408" data-name="패스 3408" d="M33.406,114.5h14.5a2.5,2.5,0,0,1,0,5h-14.5" fill="#fff"/>
        <path id="패스_3409" data-name="패스 3409" d="M33.406,114.5h14.5a2.5,2.5,0,0,1,0,5h-14.5" fill="none" stroke="#000" stroke-linecap="round" stroke-linejoin="round" stroke-width="1"/>
        <path id="패스_3410" data-name="패스 3410" d="M33.406,119.5h12.5a2.5,2.5,0,0,1,0,5h-14.5" fill="#fff"/>
        <path id="패스_3411" data-name="패스 3411" d="M33.406,119.5h12.5a2.5,2.5,0,0,1,0,5h-14.5" fill="none" stroke="#000" stroke-linecap="round" stroke-linejoin="round" stroke-width="1"/>
      </g>
    </g>
    <path id="패스_3413" data-name="패스 3413" d="M76,151h0a75,75,0,1,1,75-75A75,75,0,0,1,76,151Z" transform="translate(1193 1264)" fill="none" stroke="#222" stroke-linecap="round" stroke-linejoin="round" stroke-width="2"/>
  </g>
</svg>
