<svg xmlns="http://www.w3.org/2000/svg" xmlns:xlink="http://www.w3.org/1999/xlink" width="152" height="152" viewBox="0 0 152 152">
  <defs>
    <clipPath id="clip-path">
      <path id="패스_3572" data-name="패스 3572" d="M76,1a75,75,0,0,0,0,150h0A75,75,0,0,0,76,1Z" fill="none"/>
    </clipPath>
  </defs>
  <g id="veterinarian-ico08" transform="translate(-1336 -1397)">
    <path id="패스_3509" data-name="패스 3509" d="M76,151h0a75,75,0,1,1,75-75,75,75,0,0,1-75,75" transform="translate(1336 1397)" fill="#fff"/>
    <g id="그룹_9123" data-name="그룹 9123" transform="translate(1336 1397)">
      <g id="그룹_9122" data-name="그룹 9122" clip-path="url(#clip-path)">
        <rect id="사각형_3175" data-name="사각형 3175" width="56" height="72" transform="translate(47.906 46)" fill="#222"/>
        <path id="패스_3510" data-name="패스 3510" d="M106.906,46.5c0,17.949-13.879,32.5-31,32.5s-31-14.551-31-32.5S58.785,14,75.906,14s31,14.551,31,32.5" fill="#222"/>
        <path id="패스_3511" data-name="패스 3511" d="M123.533,127.471a28.933,28.933,0,0,0-25.309-22.092,15.242,15.242,0,0,1-5.774-1.726,14.793,14.793,0,0,1-2.43-1.646c-2.375,2.06-7.57,3.493-13.614,3.493-6.4,0-11.851-1.607-14-3.865a14.813,14.813,0,0,1-2.851,2.018,15.247,15.247,0,0,1-5.774,1.726,28.933,28.933,0,0,0-25.31,22.092l-6.279,26.375H129.813Z" fill="#fff"/>
        <path id="패스_3512" data-name="패스 3512" d="M123.533,127.471a28.933,28.933,0,0,0-25.309-22.092,15.242,15.242,0,0,1-5.774-1.726,14.793,14.793,0,0,1-2.43-1.646c-2.375,2.06-7.57,3.493-13.614,3.493-6.4,0-11.851-1.607-14-3.865a14.813,14.813,0,0,1-2.851,2.018,15.247,15.247,0,0,1-5.774,1.726,28.933,28.933,0,0,0-25.31,22.092l-6.279,26.375H129.813Z" fill="none" stroke="#222" stroke-linecap="round" stroke-linejoin="round" stroke-width="1"/>
        <path id="패스_3513" data-name="패스 3513" d="M85.242,94.659a14.794,14.794,0,0,1-.562-4.036V74.863H67.321v15.76A14.868,14.868,0,0,1,62.4,101.635c2.153,2.258,7.6,3.865,14,3.865,6.044,0,11.239-1.433,13.614-3.492a14.819,14.819,0,0,1-4.778-7.349" fill="#fff"/>
        <path id="패스_3514" data-name="패스 3514" d="M85.242,94.659a14.794,14.794,0,0,1-.562-4.036V74.863H67.321v15.76A14.868,14.868,0,0,1,62.4,101.635c2.153,2.258,7.6,3.865,14,3.865,6.044,0,11.239-1.433,13.614-3.492A14.819,14.819,0,0,1,85.242,94.659Z" fill="none" stroke="#222" stroke-miterlimit="10" stroke-width="1"/>
        <path id="패스_3515" data-name="패스 3515" d="M51.553,54.146s-2.533-4.226-6.908,0,1.122,15.509,4.593,16.377,4.051-5.5,4.051-5.5Z" fill="#fff"/>
        <path id="패스_3516" data-name="패스 3516" d="M51.553,54.146s-2.533-4.226-6.908,0,1.122,15.509,4.593,16.377,4.051-5.5,4.051-5.5Z" fill="none" stroke="#222" stroke-linecap="round" stroke-linejoin="round" stroke-width="1"/>
        <path id="패스_3517" data-name="패스 3517" d="M46.345,58.083s3.472-3.022,5.208,1.961" fill="none" stroke="#00abe3" stroke-linecap="round" stroke-linejoin="round" stroke-width="1"/>
        <path id="패스_3518" data-name="패스 3518" d="M49.879,57.548a5.465,5.465,0,0,0-.93,7.949" fill="none" stroke="#00abe3" stroke-linecap="round" stroke-linejoin="round" stroke-width="1"/>
        <path id="패스_3519" data-name="패스 3519" d="M100.447,54.146s2.533-4.226,6.908,0-1.122,15.509-4.593,16.377-4.051-5.5-4.051-5.5Z" fill="#fff"/>
        <path id="패스_3520" data-name="패스 3520" d="M100.447,54.146s2.533-4.226,6.908,0-1.122,15.509-4.593,16.377-4.051-5.5-4.051-5.5Z" fill="none" stroke="#222" stroke-linecap="round" stroke-linejoin="round" stroke-width="1"/>
        <path id="패스_3521" data-name="패스 3521" d="M105.655,58.083s-3.472-3.022-5.208,1.961" fill="none" stroke="#00abe3" stroke-linecap="round" stroke-linejoin="round" stroke-width="1"/>
        <path id="패스_3522" data-name="패스 3522" d="M102.121,57.548a5.465,5.465,0,0,1,.93,7.949" fill="none" stroke="#00abe3" stroke-linecap="round" stroke-linejoin="round" stroke-width="1"/>
        <path id="패스_3523" data-name="패스 3523" d="M81.244,95.983h0a24.631,24.631,0,0,0,4.3-.384,14.8,14.8,0,0,1-.861-4.976V74.863H67.321v15.76c0,.329-.012.655-.033.98a24.325,24.325,0,0,0,13.956,4.38" fill="#222"/>
        <path id="패스_3524" data-name="패스 3524" d="M81.244,95.983h0a24.631,24.631,0,0,0,4.3-.384,14.8,14.8,0,0,1-.861-4.976V74.863H67.321v15.76c0,.329-.012.655-.033.98A24.325,24.325,0,0,0,81.244,95.983Z" fill="none" stroke="#222" stroke-linecap="round" stroke-linejoin="round" stroke-width="1"/>
        <path id="패스_3525" data-name="패스 3525" d="M76,88.461h0A24.447,24.447,0,0,1,51.553,64.014V41.447a24.447,24.447,0,1,1,48.894,0V64.014A24.447,24.447,0,0,1,76,88.461" fill="#fff"/>
        <path id="패스_3526" data-name="패스 3526" d="M76,88.461h0A24.447,24.447,0,0,1,51.553,64.014V41.447a24.447,24.447,0,1,1,48.894,0V64.014A24.447,24.447,0,0,1,76,88.461Z" fill="none" stroke="#222" stroke-linecap="round" stroke-linejoin="round" stroke-width="1"/>
        <path id="패스_3527" data-name="패스 3527" d="M67.465,57.926a2.893,2.893,0,1,1-2.893-2.893,2.893,2.893,0,0,1,2.893,2.893" fill="#222"/>
        <circle id="타원_133" data-name="타원 133" cx="2.893" cy="2.893" r="2.893" transform="translate(61.679 55.033)" fill="none" stroke="#222" stroke-linecap="round" stroke-linejoin="round" stroke-width="1"/>
        <path id="패스_3528" data-name="패스 3528" d="M84.535,57.926a2.893,2.893,0,1,0,2.893-2.893,2.893,2.893,0,0,0-2.893,2.893" fill="#222"/>
        <circle id="타원_134" data-name="타원 134" cx="2.893" cy="2.893" r="2.893" transform="translate(84.535 55.033)" fill="none" stroke="#222" stroke-linecap="round" stroke-linejoin="round" stroke-width="1"/>
        <path id="패스_3529" data-name="패스 3529" d="M68.333,72.63a24.977,24.977,0,0,0,15.334,0" fill="none" stroke="#222" stroke-linecap="round" stroke-linejoin="round" stroke-width="1"/>
        <path id="패스_3530" data-name="패스 3530" d="M76,56.781s-6.22,10.652-.145,10.652" fill="none" stroke="#222" stroke-linecap="round" stroke-linejoin="round" stroke-width="1"/>
        <path id="패스_3531" data-name="패스 3531" d="M71.263,153.5l-6.857-55-9.6,16.741L67.47,153.5Z" fill="#fff"/>
        <path id="패스_3532" data-name="패스 3532" d="M71.263,153.5l-6.857-55-9.6,16.741L67.47,153.5Z" fill="none" stroke="#00abe3" stroke-linecap="round" stroke-linejoin="round" stroke-width="1"/>
        <path id="패스_3533" data-name="패스 3533" d="M80.549,153.5l6.857-55L97,115.241,84.342,153.5Z" fill="#fff"/>
        <path id="패스_3534" data-name="패스 3534" d="M80.549,153.5l6.857-55L97,115.241,84.342,153.5Z" fill="none" stroke="#00abe3" stroke-linecap="round" stroke-linejoin="round" stroke-width="1"/>
        <path id="패스_3535" data-name="패스 3535" d="M61.679,49.947a4.045,4.045,0,0,1,5.609,0" fill="none" stroke="#222" stroke-linecap="round" stroke-linejoin="round" stroke-width="1"/>
        <path id="패스_3536" data-name="패스 3536" d="M90.134,49.947a4.045,4.045,0,0,0-5.609,0" fill="none" stroke="#222" stroke-linecap="round" stroke-linejoin="round" stroke-width="1"/>
        <path id="패스_3537" data-name="패스 3537" d="M56.906,26s2.572,14.619,16.286,20.309c0,0-.286-6.309,2.714-7.309,0,0-1,5.619,0,7.309,0,0,20.664,3.31,25.332,0S101.2,28.3,92.906,23s-23-11-36,3" fill="#222"/>
        <path id="패스_3538" data-name="패스 3538" d="M62.4,33.286S56.553,45.146,51.906,49s-2.957-12.737-2.957-12.737L56.906,26Z" fill="#222"/>
        <path id="패스_3539" data-name="패스 3539" d="M87.03,126.885h0a11.3,11.3,0,0,1,0-15.983l27.663-27.663a11.3,11.3,0,0,1,15.983,15.983l-27.663,27.663a11.3,11.3,0,0,1-15.983,0" fill="#fff"/>
        <path id="패스_3540" data-name="패스 3540" d="M87.03,126.885h0a11.3,11.3,0,0,1,0-15.983l27.663-27.663a11.3,11.3,0,0,1,15.983,15.983l-27.663,27.663A11.3,11.3,0,0,1,87.03,126.885Z" fill="none" stroke="#222" stroke-linecap="round" stroke-linejoin="round" stroke-width="1"/>
        <path id="패스_3541" data-name="패스 3541" d="M90.718,123.2h0a6.084,6.084,0,0,1,0-8.606l27.663-27.663a6.085,6.085,0,1,1,8.606,8.606L99.324,123.2a6.084,6.084,0,0,1-8.606,0" fill="#fff"/>
        <path id="패스_3542" data-name="패스 3542" d="M90.718,123.2h0a6.084,6.084,0,0,1,0-8.606l27.663-27.663a6.085,6.085,0,1,1,8.606,8.606L99.324,123.2A6.084,6.084,0,0,1,90.718,123.2Z" fill="none" stroke="#222" stroke-linecap="round" stroke-linejoin="round" stroke-width="1"/>
        <line id="선_354" data-name="선 354" x1="3.074" y2="3.074" transform="translate(130.676 80.165)" fill="#fff"/>
        <line id="선_355" data-name="선 355" x1="3.074" y2="3.074" transform="translate(130.676 80.165)" fill="none" stroke="#222" stroke-linecap="round" stroke-linejoin="round" stroke-width="1"/>
        <line id="선_356" data-name="선 356" x1="1.125" y2="4.199" transform="translate(125.61 76.115)" fill="#fff"/>
        <line id="선_357" data-name="선 357" x1="1.125" y2="4.199" transform="translate(125.61 76.115)" fill="none" stroke="#222" stroke-linecap="round" stroke-linejoin="round" stroke-width="1"/>
        <line id="선_358" data-name="선 358" x2="1.125" y2="4.199" transform="translate(118.635 76.115)" fill="#fff"/>
        <line id="선_359" data-name="선 359" x2="1.125" y2="4.199" transform="translate(118.635 76.115)" fill="none" stroke="#222" stroke-linecap="round" stroke-linejoin="round" stroke-width="1"/>
        <line id="선_360" data-name="선 360" x2="3.074" y2="3.074" transform="translate(111.619 80.165)" fill="#fff"/>
        <line id="선_361" data-name="선 361" x2="3.074" y2="3.074" transform="translate(111.619 80.165)" fill="none" stroke="#222" stroke-linecap="round" stroke-linejoin="round" stroke-width="1"/>
        <line id="선_362" data-name="선 362" x2="4.199" y2="1.125" transform="translate(79.906 114.843)" fill="#fff"/>
        <line id="선_363" data-name="선 363" x2="4.199" y2="1.125" transform="translate(79.906 114.843)" fill="none" stroke="#222" stroke-linecap="round" stroke-linejoin="round" stroke-width="1"/>
        <line id="선_364" data-name="선 364" y1="1.125" x2="4.199" transform="translate(79.906 121.819)" fill="#fff"/>
        <line id="선_365" data-name="선 365" y1="1.125" x2="4.199" transform="translate(79.906 121.819)" fill="none" stroke="#222" stroke-linecap="round" stroke-linejoin="round" stroke-width="1"/>
        <line id="선_366" data-name="선 366" y1="4.199" x2="1.125" transform="translate(90.971 129.81)" fill="#fff"/>
        <line id="선_367" data-name="선 367" y1="4.199" x2="1.125" transform="translate(90.971 129.81)" fill="none" stroke="#222" stroke-linecap="round" stroke-linejoin="round" stroke-width="1"/>
        <line id="선_368" data-name="선 368" x1="1.125" y1="4.199" transform="translate(97.947 129.81)" fill="#fff"/>
        <line id="선_369" data-name="선 369" x1="1.125" y1="4.199" transform="translate(97.947 129.81)" fill="none" stroke="#222" stroke-linecap="round" stroke-linejoin="round" stroke-width="1"/>
        <line id="선_370" data-name="선 370" x1="3.074" y1="3.074" transform="translate(130.676 99.222)" fill="#fff"/>
        <line id="선_371" data-name="선 371" x1="3.074" y1="3.074" transform="translate(130.676 99.222)" fill="none" stroke="#222" stroke-linecap="round" stroke-linejoin="round" stroke-width="1"/>
        <line id="선_372" data-name="선 372" x2="3.074" y2="3.074" transform="translate(83.956 107.828)" fill="#fff"/>
        <line id="선_373" data-name="선 373" x2="3.074" y2="3.074" transform="translate(83.956 107.828)" fill="none" stroke="#222" stroke-linecap="round" stroke-linejoin="round" stroke-width="1"/>
        <line id="선_374" data-name="선 374" x2="3.074" y2="3.074" transform="translate(89.489 102.296)" fill="#fff"/>
        <line id="선_375" data-name="선 375" x2="3.074" y2="3.074" transform="translate(89.489 102.296)" fill="none" stroke="#222" stroke-linecap="round" stroke-linejoin="round" stroke-width="1"/>
        <line id="선_376" data-name="선 376" x2="3.074" y2="3.074" transform="translate(95.022 96.763)" fill="#fff"/>
        <line id="선_377" data-name="선 377" x2="3.074" y2="3.074" transform="translate(95.022 96.763)" fill="none" stroke="#222" stroke-linecap="round" stroke-linejoin="round" stroke-width="1"/>
        <line id="선_378" data-name="선 378" x2="3.074" y2="3.074" transform="translate(100.554 91.231)" fill="#fff"/>
        <line id="선_379" data-name="선 379" x2="3.074" y2="3.074" transform="translate(100.554 91.231)" fill="none" stroke="#222" stroke-linecap="round" stroke-linejoin="round" stroke-width="1"/>
        <line id="선_380" data-name="선 380" x2="3.074" y2="3.074" transform="translate(106.087 85.698)" fill="#fff"/>
        <line id="선_381" data-name="선 381" x2="3.074" y2="3.074" transform="translate(106.087 85.698)" fill="none" stroke="#222" stroke-linecap="round" stroke-linejoin="round" stroke-width="1"/>
        <line id="선_382" data-name="선 382" x2="3.074" y2="3.074" transform="translate(108.546 121.353)" fill="#fff"/>
        <line id="선_383" data-name="선 383" x2="3.074" y2="3.074" transform="translate(108.546 121.353)" fill="none" stroke="#222" stroke-linecap="round" stroke-linejoin="round" stroke-width="1"/>
        <line id="선_384" data-name="선 384" x2="3.074" y2="3.074" transform="translate(114.078 115.82)" fill="#fff"/>
        <line id="선_385" data-name="선 385" x2="3.074" y2="3.074" transform="translate(114.078 115.82)" fill="none" stroke="#222" stroke-linecap="round" stroke-linejoin="round" stroke-width="1"/>
        <line id="선_386" data-name="선 386" x2="3.074" y2="3.074" transform="translate(119.611 110.287)" fill="#fff"/>
        <line id="선_387" data-name="선 387" x2="3.074" y2="3.074" transform="translate(119.611 110.287)" fill="none" stroke="#222" stroke-linecap="round" stroke-linejoin="round" stroke-width="1"/>
        <line id="선_388" data-name="선 388" x2="3.074" y2="3.074" transform="translate(125.144 104.755)" fill="#fff"/>
        <line id="선_389" data-name="선 389" x2="3.074" y2="3.074" transform="translate(125.144 104.755)" fill="none" stroke="#222" stroke-linecap="round" stroke-linejoin="round" stroke-width="1"/>
        <line id="선_390" data-name="선 390" x1="3.074" y1="3.074" transform="translate(103.013 126.885)" fill="#fff"/>
        <line id="선_391" data-name="선 391" x1="3.074" y1="3.074" transform="translate(103.013 126.885)" fill="none" stroke="#222" stroke-linecap="round" stroke-linejoin="round" stroke-width="1"/>
        <line id="선_392" data-name="선 392" x1="4.199" y1="1.125" transform="translate(133.601 94.156)" fill="#fff"/>
        <line id="선_393" data-name="선 393" x1="4.199" y1="1.125" transform="translate(133.601 94.156)" fill="none" stroke="#222" stroke-linecap="round" stroke-linejoin="round" stroke-width="1"/>
        <line id="선_394" data-name="선 394" x1="4.199" y2="1.125" transform="translate(133.601 87.18)" fill="#fff"/>
        <line id="선_395" data-name="선 395" x1="4.199" y2="1.125" transform="translate(133.601 87.18)" fill="none" stroke="#222" stroke-linecap="round" stroke-linejoin="round" stroke-width="1"/>
        <line id="선_396" data-name="선 396" x1="3.074" y2="3.074" transform="translate(83.956 126.885)" fill="#fff"/>
        <line id="선_397" data-name="선 397" x1="3.074" y2="3.074" transform="translate(83.956 126.885)" fill="none" stroke="#222" stroke-linecap="round" stroke-linejoin="round" stroke-width="1"/>
        <path id="패스_3543" data-name="패스 3543" d="M124.222,93.382a2.174,2.174,0,1,1,0-3.074,2.173,2.173,0,0,1,0,3.074" fill="#fff"/>
        <path id="패스_3544" data-name="패스 3544" d="M124.222,93.382a2.174,2.174,0,1,1,0-3.074A2.173,2.173,0,0,1,124.222,93.382Z" fill="none" stroke="#222" stroke-linecap="round" stroke-linejoin="round" stroke-width="1"/>
        <path id="패스_3545" data-name="패스 3545" d="M108.853,106.292a2.174,2.174,0,1,1,0-3.074,2.173,2.173,0,0,1,0,3.074" fill="#fff"/>
        <path id="패스_3546" data-name="패스 3546" d="M108.853,106.292a2.174,2.174,0,1,1,0-3.074A2.173,2.173,0,0,1,108.853,106.292Z" fill="none" stroke="#222" stroke-linecap="round" stroke-linejoin="round" stroke-width="1"/>
        <path id="패스_3547" data-name="패스 3547" d="M89.8,95.841a2.174,2.174,0,1,1,0-3.074,2.173,2.173,0,0,1,0,3.074" fill="#fff"/>
        <path id="패스_3548" data-name="패스 3548" d="M89.8,95.841a2.174,2.174,0,1,1,0-3.074A2.173,2.173,0,0,1,89.8,95.841Z" fill="none" stroke="#222" stroke-linecap="round" stroke-linejoin="round" stroke-width="1"/>
        <path id="패스_3549" data-name="패스 3549" d="M83.649,88.464a2.174,2.174,0,1,1,0-3.074,2.173,2.173,0,0,1,0,3.074" fill="#fff"/>
        <path id="패스_3550" data-name="패스 3550" d="M83.649,88.464a2.174,2.174,0,1,1,0-3.074A2.173,2.173,0,0,1,83.649,88.464Z" fill="none" stroke="#222" stroke-linecap="round" stroke-linejoin="round" stroke-width="1"/>
        <path id="패스_3551" data-name="패스 3551" d="M83.649,103.218a2.174,2.174,0,1,1,0-3.074,2.173,2.173,0,0,1,0,3.074" fill="#fff"/>
        <path id="패스_3552" data-name="패스 3552" d="M83.649,103.218a2.174,2.174,0,1,1,0-3.074A2.173,2.173,0,0,1,83.649,103.218Z" fill="none" stroke="#222" stroke-linecap="round" stroke-linejoin="round" stroke-width="1"/>
        <path id="패스_3553" data-name="패스 3553" d="M130.984,117.357a2.174,2.174,0,1,1,0-3.074,2.173,2.173,0,0,1,0,3.074" fill="#fff"/>
        <path id="패스_3554" data-name="패스 3554" d="M130.984,117.357a2.174,2.174,0,1,1,0-3.074A2.173,2.173,0,0,1,130.984,117.357Z" fill="none" stroke="#222" stroke-linecap="round" stroke-linejoin="round" stroke-width="1"/>
        <path id="패스_3555" data-name="패스 3555" d="M137.131,109.98a2.174,2.174,0,1,1,0-3.074,2.173,2.173,0,0,1,0,3.074" fill="#fff"/>
        <path id="패스_3556" data-name="패스 3556" d="M137.131,109.98a2.174,2.174,0,1,1,0-3.074A2.173,2.173,0,0,1,137.131,109.98Z" fill="none" stroke="#222" stroke-linecap="round" stroke-linejoin="round" stroke-width="1"/>
        <path id="패스_3557" data-name="패스 3557" d="M137.131,124.734a2.174,2.174,0,1,1,0-3.074,2.173,2.173,0,0,1,0,3.074" fill="#fff"/>
        <path id="패스_3558" data-name="패스 3558" d="M137.131,124.734a2.174,2.174,0,1,1,0-3.074A2.173,2.173,0,0,1,137.131,124.734Z" fill="none" stroke="#222" stroke-linecap="round" stroke-linejoin="round" stroke-width="1"/>
        <path id="패스_3559" data-name="패스 3559" d="M105.78,113.054a2.174,2.174,0,1,1,0-3.074,2.175,2.175,0,0,1,0,3.074" fill="#fff"/>
        <path id="패스_3560" data-name="패스 3560" d="M105.78,113.054a2.174,2.174,0,1,1,0-3.074A2.175,2.175,0,0,1,105.78,113.054Z" fill="none" stroke="#222" stroke-linecap="round" stroke-linejoin="round" stroke-width="1"/>
        <path id="패스_3561" data-name="패스 3561" d="M116.537,96.148Z" fill="#fff"/>
        <path id="패스_3562" data-name="패스 3562" d="M116.537,96.148Z" fill="none" stroke="#222" stroke-linecap="round" stroke-linejoin="round" stroke-width="1"/>
        <path id="패스_3563" data-name="패스 3563" d="M112.849,99.837Z" fill="#fff"/>
        <path id="패스_3564" data-name="패스 3564" d="M112.849,99.837Z" fill="none" stroke="#222" stroke-linecap="round" stroke-linejoin="round" stroke-width="1"/>
        <line id="선_398" data-name="선 398" transform="translate(117.152 100.452)" fill="#fff"/>
        <path id="패스_3565" data-name="패스 3565" d="M117.152,100.452Z" fill="none" stroke="#222" stroke-linecap="round" stroke-linejoin="round" stroke-width="1"/>
        <path id="패스_3566" data-name="패스 3566" d="M99.325,117.049Z" fill="#fff"/>
        <path id="패스_3567" data-name="패스 3567" d="M99.325,117.049Z" fill="none" stroke="#222" stroke-linecap="round" stroke-linejoin="round" stroke-width="1"/>
        <path id="패스_3568" data-name="패스 3568" d="M95.636,120.738Z" fill="#fff"/>
        <path id="패스_3569" data-name="패스 3569" d="M95.636,120.738Z" fill="none" stroke="#222" stroke-linecap="round" stroke-linejoin="round" stroke-width="1"/>
        <path id="패스_3570" data-name="패스 3570" d="M95.022,116.435Z" fill="#fff"/>
        <path id="패스_3571" data-name="패스 3571" d="M95.022,116.435Z" fill="none" stroke="#222" stroke-linecap="round" stroke-linejoin="round" stroke-width="1"/>
      </g>
    </g>
    <path id="패스_3573" data-name="패스 3573" d="M76,151h0a75,75,0,1,1,75-75A75,75,0,0,1,76,151Z" transform="translate(1336 1397)" fill="none" stroke="#222" stroke-linecap="round" stroke-linejoin="round" stroke-width="2"/>
  </g>
</svg>
