<svg xmlns="http://www.w3.org/2000/svg" xmlns:xlink="http://www.w3.org/1999/xlink" width="152" height="152" viewBox="0 0 152 152">
  <defs>
    <clipPath id="clip-path">
      <path id="패스_3615" data-name="패스 3615" d="M76,1a75,75,0,0,0,0,150h0A75,75,0,0,0,76,1Z" fill="none"/>
    </clipPath>
  </defs>
  <g id="veterinarian-ico04" transform="translate(-393 -2149)">
    <path id="패스_3574" data-name="패스 3574" d="M76,151h0a75,75,0,1,1,75-75,75,75,0,0,1-75,75" transform="translate(393 2149)" fill="#fff"/>
    <g id="그룹_9152" data-name="그룹 9152" transform="translate(393 2149)">
      <g id="그룹_9151" data-name="그룹 9151" clip-path="url(#clip-path)">
        <path id="패스_3575" data-name="패스 3575" d="M106.906,46.5c0,17.949-13.879,32.5-31,32.5s-31-14.551-31-32.5S58.785,14,75.906,14s31,14.551,31,32.5" fill="#222"/>
        <path id="패스_3576" data-name="패스 3576" d="M104.906,61.5c0,16.845-12.984,30.5-29,30.5s-29-13.655-29-30.5S59.89,31,75.906,31s29,13.655,29,30.5" fill="#222"/>
        <path id="패스_3577" data-name="패스 3577" d="M123.533,127.471a28.933,28.933,0,0,0-25.309-22.092,15.242,15.242,0,0,1-5.774-1.726,14.793,14.793,0,0,1-2.43-1.646c-2.375,2.06-7.57,3.493-13.614,3.493-6.4,0-11.851-1.607-14-3.865a14.813,14.813,0,0,1-2.851,2.018,15.247,15.247,0,0,1-5.774,1.726,28.933,28.933,0,0,0-25.31,22.092l-6.279,26.375H129.813Z" fill="#fff"/>
        <path id="패스_3578" data-name="패스 3578" d="M123.533,127.471a28.933,28.933,0,0,0-25.309-22.092,15.242,15.242,0,0,1-5.774-1.726,14.793,14.793,0,0,1-2.43-1.646c-2.375,2.06-7.57,3.493-13.614,3.493-6.4,0-11.851-1.607-14-3.865a14.813,14.813,0,0,1-2.851,2.018,15.247,15.247,0,0,1-5.774,1.726,28.933,28.933,0,0,0-25.31,22.092l-6.279,26.375H129.813Z" fill="none" stroke="#222" stroke-linecap="round" stroke-linejoin="round" stroke-width="1"/>
        <path id="패스_3579" data-name="패스 3579" d="M85.242,94.659a14.794,14.794,0,0,1-.562-4.036V74.863H67.321v15.76A14.868,14.868,0,0,1,62.4,101.635c2.153,2.258,7.6,3.865,14,3.865,6.044,0,11.239-1.433,13.614-3.492a14.819,14.819,0,0,1-4.778-7.349" fill="#fff"/>
        <path id="패스_3580" data-name="패스 3580" d="M85.242,94.659a14.794,14.794,0,0,1-.562-4.036V74.863H67.321v15.76A14.868,14.868,0,0,1,62.4,101.635c2.153,2.258,7.6,3.865,14,3.865,6.044,0,11.239-1.433,13.614-3.492A14.819,14.819,0,0,1,85.242,94.659Z" fill="none" stroke="#222" stroke-miterlimit="10" stroke-width="1"/>
        <path id="패스_3581" data-name="패스 3581" d="M51.553,54.146s-2.533-4.226-6.908,0,1.122,15.509,4.593,16.377,4.051-5.5,4.051-5.5Z" fill="#fff"/>
        <path id="패스_3582" data-name="패스 3582" d="M51.553,54.146s-2.533-4.226-6.908,0,1.122,15.509,4.593,16.377,4.051-5.5,4.051-5.5Z" fill="none" stroke="#222" stroke-linecap="round" stroke-linejoin="round" stroke-width="1"/>
        <path id="패스_3583" data-name="패스 3583" d="M46.345,58.083s3.472-3.022,5.208,1.961" fill="none" stroke="#00abe3" stroke-linecap="round" stroke-linejoin="round" stroke-width="1"/>
        <path id="패스_3584" data-name="패스 3584" d="M49.879,57.548a5.465,5.465,0,0,0-.93,7.949" fill="none" stroke="#00abe3" stroke-linecap="round" stroke-linejoin="round" stroke-width="1"/>
        <path id="패스_3585" data-name="패스 3585" d="M100.447,54.146s2.533-4.226,6.908,0-1.122,15.509-4.593,16.377-4.051-5.5-4.051-5.5Z" fill="#fff"/>
        <path id="패스_3586" data-name="패스 3586" d="M100.447,54.146s2.533-4.226,6.908,0-1.122,15.509-4.593,16.377-4.051-5.5-4.051-5.5Z" fill="none" stroke="#222" stroke-linecap="round" stroke-linejoin="round" stroke-width="1"/>
        <path id="패스_3587" data-name="패스 3587" d="M105.655,58.083s-3.472-3.022-5.208,1.961" fill="none" stroke="#00abe3" stroke-linecap="round" stroke-linejoin="round" stroke-width="1"/>
        <path id="패스_3588" data-name="패스 3588" d="M102.121,57.548a5.465,5.465,0,0,1,.93,7.949" fill="none" stroke="#00abe3" stroke-linecap="round" stroke-linejoin="round" stroke-width="1"/>
        <path id="패스_3589" data-name="패스 3589" d="M81.244,95.983h0a24.631,24.631,0,0,0,4.3-.384,14.8,14.8,0,0,1-.861-4.976V74.863H67.321v15.76c0,.329-.012.655-.033.98a24.325,24.325,0,0,0,13.956,4.38" fill="#222"/>
        <path id="패스_3590" data-name="패스 3590" d="M81.244,95.983h0a24.631,24.631,0,0,0,4.3-.384,14.8,14.8,0,0,1-.861-4.976V74.863H67.321v15.76c0,.329-.012.655-.033.98A24.325,24.325,0,0,0,81.244,95.983Z" fill="none" stroke="#222" stroke-linecap="round" stroke-linejoin="round" stroke-width="1"/>
        <path id="패스_3591" data-name="패스 3591" d="M76,88.461h0A24.447,24.447,0,0,1,51.553,64.014V41.447a24.447,24.447,0,1,1,48.894,0V64.014A24.447,24.447,0,0,1,76,88.461" fill="#fff"/>
        <path id="패스_3592" data-name="패스 3592" d="M76,88.461h0A24.447,24.447,0,0,1,51.553,64.014V41.447a24.447,24.447,0,1,1,48.894,0V64.014A24.447,24.447,0,0,1,76,88.461Z" fill="none" stroke="#222" stroke-linecap="round" stroke-linejoin="round" stroke-width="1"/>
        <path id="패스_3593" data-name="패스 3593" d="M67.465,57.925a2.893,2.893,0,1,1-2.893-2.893,2.893,2.893,0,0,1,2.893,2.893" fill="#222"/>
        <circle id="타원_135" data-name="타원 135" cx="2.893" cy="2.893" r="2.893" transform="translate(61.679 55.032)" fill="none" stroke="#222" stroke-linecap="round" stroke-linejoin="round" stroke-width="1"/>
        <path id="패스_3594" data-name="패스 3594" d="M84.535,57.925a2.893,2.893,0,1,0,2.893-2.893,2.893,2.893,0,0,0-2.893,2.893" fill="#222"/>
        <circle id="타원_136" data-name="타원 136" cx="2.893" cy="2.893" r="2.893" transform="translate(84.535 55.032)" fill="none" stroke="#222" stroke-linecap="round" stroke-linejoin="round" stroke-width="1"/>
        <path id="패스_3595" data-name="패스 3595" d="M68.333,75.63a24.977,24.977,0,0,0,15.334,0" fill="none" stroke="#222" stroke-linecap="round" stroke-linejoin="round" stroke-width="1"/>
        <path id="패스_3596" data-name="패스 3596" d="M76,56.781s-6.22,10.652-.145,10.652" fill="none" stroke="#222" stroke-linecap="round" stroke-linejoin="round" stroke-width="1"/>
        <line id="선_399" data-name="선 399" x2="6" transform="translate(61.406 50.5)" fill="none" stroke="#222" stroke-linecap="round" stroke-linejoin="round" stroke-width="1"/>
        <line id="선_400" data-name="선 400" x2="6" transform="translate(84.406 50.5)" fill="none" stroke="#222" stroke-linecap="round" stroke-linejoin="round" stroke-width="1"/>
        <path id="패스_3597" data-name="패스 3597" d="M71.263,153.5l-6.857-55-9.6,16.741L67.47,153.5Z" fill="#fff"/>
        <path id="패스_3598" data-name="패스 3598" d="M71.263,153.5l-6.857-55-9.6,16.741L67.47,153.5Z" fill="none" stroke="#00abe3" stroke-linecap="round" stroke-linejoin="round" stroke-width="1"/>
        <path id="패스_3599" data-name="패스 3599" d="M80.549,153.5l6.857-55L97,115.241,84.342,153.5Z" fill="#fff"/>
        <path id="패스_3600" data-name="패스 3600" d="M80.549,153.5l6.857-55L97,115.241,84.342,153.5Z" fill="none" stroke="#00abe3" stroke-linecap="round" stroke-linejoin="round" stroke-width="1"/>
        <path id="패스_3601" data-name="패스 3601" d="M136.969,149.723H116.1V123.259a3,3,0,0,1,3-3h14.871a3,3,0,0,1,3,3Z" fill="#fff"/>
        <path id="패스_3602" data-name="패스 3602" d="M136.969,149.723H116.1V123.259a3,3,0,0,1,3-3h14.871a3,3,0,0,1,3,3Z" fill="none" stroke="#222" stroke-linecap="round" stroke-linejoin="round" stroke-width="1"/>
        <path id="패스_3603" data-name="패스 3603" d="M104.277,141.129H92.317a2,2,0,0,1-2-2v-4.138h15.96v4.138a2,2,0,0,1-2,2" fill="#fff"/>
        <path id="패스_3604" data-name="패스 3604" d="M104.277,141.129H92.317a2,2,0,0,1-2-2v-4.138h15.96v4.138A2,2,0,0,1,104.277,141.129Z" fill="none" stroke="#222" stroke-linecap="round" stroke-linejoin="round" stroke-width="1"/>
        <path id="패스_3605" data-name="패스 3605" d="M141.88,149.723H85.407V159a3,3,0,0,0,3,3H138.88a3,3,0,0,0,3-3Z" fill="#fff"/>
        <path id="패스_3606" data-name="패스 3606" d="M141.88,149.723H85.407V159a3,3,0,0,0,3,3H138.88a3,3,0,0,0,3-3Z" fill="none" stroke="#222" stroke-linecap="round" stroke-linejoin="round" stroke-width="1"/>
        <line id="선_401" data-name="선 401" x2="29.464" transform="translate(86.634 134.991)" fill="#fff"/>
        <line id="선_402" data-name="선 402" x2="29.464" transform="translate(86.634 134.991)" fill="none" stroke="#222" stroke-linecap="round" stroke-linejoin="round" stroke-width="1"/>
        <path id="패스_3607" data-name="패스 3607" d="M110.124,105.734l2.735,1a2,2,0,0,0,2.564-1.2l4.823-13.252a2,2,0,0,0-1.2-2.563l-2.735-1Z" fill="#fff"/>
        <path id="패스_3608" data-name="패스 3608" d="M110.124,105.734l2.735,1a2,2,0,0,0,2.564-1.2l4.823-13.252a2,2,0,0,0-1.2-2.563l-2.735-1Z" fill="none" stroke="#222" stroke-linecap="round" stroke-linejoin="round" stroke-width="1"/>
        <path id="패스_3609" data-name="패스 3609" d="M110.124,105.734l2.735,1a2,2,0,0,0,2.564-1.2l4.823-13.252a2,2,0,0,0-1.2-2.563l-2.735-1Z" fill="#fff"/>
        <path id="패스_3610" data-name="패스 3610" d="M110.124,105.734l2.735,1a2,2,0,0,0,2.564-1.2l4.823-13.252a2,2,0,0,0-1.2-2.563l-2.735-1Z" fill="none" stroke="#222" stroke-linecap="round" stroke-linejoin="round" stroke-width="1"/>
        <path id="패스_3611" data-name="패스 3611" d="M122.237,113.962v6.3h8.594V110.4a10.144,10.144,0,0,0-2.97-7.17l-8.5-8.5-3.243,8.91,3.154,3.154a10.139,10.139,0,0,1,2.97,7.17" fill="#fff"/>
        <path id="패스_3612" data-name="패스 3612" d="M122.237,113.962v6.3h8.594V110.4a10.144,10.144,0,0,0-2.97-7.17l-8.5-8.5-3.243,8.91,3.154,3.154A10.139,10.139,0,0,1,122.237,113.962Z" fill="none" stroke="#222" stroke-linecap="round" stroke-linejoin="round" stroke-width="1"/>
        <rect id="사각형_3181" data-name="사각형 3181" width="33.923" height="12.438" transform="matrix(0.342, -0.94, 0.94, 0.342, 95.977, 108.06)" fill="#fff"/>
        <rect id="사각형_3182" data-name="사각형 3182" width="33.923" height="12.438" transform="matrix(0.342, -0.94, 0.94, 0.342, 95.977, 108.06)" fill="none" stroke="#222" stroke-linecap="round" stroke-linejoin="round" stroke-width="1"/>
        <rect id="사각형_3183" data-name="사각형 3183" width="5.653" height="9.674" transform="translate(108.885 76.659) rotate(-69.986)" fill="#fff"/>
        <rect id="사각형_3184" data-name="사각형 3184" width="5.653" height="9.674" transform="translate(108.885 76.659) rotate(-69.986)" fill="none" stroke="#222" stroke-linecap="round" stroke-linejoin="round" stroke-width="1"/>
        <rect id="사각형_3185" data-name="사각형 3185" width="13.569" height="9.675" transform="translate(92.632 121.283) rotate(-69.986)" fill="#fff"/>
        <rect id="사각형_3186" data-name="사각형 3186" width="13.569" height="9.675" transform="translate(92.632 121.283) rotate(-69.986)" fill="none" stroke="#222" stroke-linecap="round" stroke-linejoin="round" stroke-width="1"/>
        <line id="선_403" data-name="선 403" x2="11.687" y2="4.257" transform="translate(92.882 116.561)" fill="#fff"/>
        <line id="선_404" data-name="선 404" x2="11.687" y2="4.257" transform="translate(92.882 116.561)" fill="none" stroke="#222" stroke-linecap="round" stroke-linejoin="round" stroke-width="1"/>
        <line id="선_405" data-name="선 405" x2="11.687" y2="4.257" transform="translate(109.521 70.874)" fill="#fff"/>
        <line id="선_406" data-name="선 406" x2="11.687" y2="4.257" transform="translate(109.521 70.874)" fill="none" stroke="#222" stroke-linecap="round" stroke-linejoin="round" stroke-width="1"/>
        <path id="패스_3613" data-name="패스 3613" d="M79.906,33s0-5-3-4c-2.846.949-1.481,10.481-8,17-5,5-14.027,8.5-21,4s9-27,9-27l11.427-6.768L81.906,17Z" fill="#222"/>
        <path id="패스_3614" data-name="패스 3614" d="M79.906,33s0-5,3-4c2.846.949,4,11,7,17,1.612,3.225,5,7,12,6,8.216-1.174-1-22-1-22l-11-11-12-2Z" fill="#222"/>
      </g>
    </g>
    <path id="패스_3616" data-name="패스 3616" d="M76,151h0a75,75,0,1,1,75-75A75,75,0,0,1,76,151Z" transform="translate(393 2149)" fill="none" stroke="#222" stroke-linecap="round" stroke-linejoin="round" stroke-width="2"/>
  </g>
</svg>
