<svg xmlns="http://www.w3.org/2000/svg" xmlns:xlink="http://www.w3.org/1999/xlink" width="152" height="152" viewBox="0 0 152 152">
  <defs>
    <clipPath id="clip-path">
      <path id="패스_3736" data-name="패스 3736" d="M76,1a75,75,0,0,0,0,150h0A75,75,0,0,0,76,1Z" fill="none"/>
    </clipPath>
  </defs>
  <g id="veterinarian-ico02" transform="translate(-1152 -1720)">
    <path id="패스_3697" data-name="패스 3697" d="M76,151h0a75,75,0,1,1,75-75,75,75,0,0,1-75,75" transform="translate(1152 1720)" fill="#fff"/>
    <g id="그룹_9237" data-name="그룹 9237" transform="translate(1152 1720)" clip-path="url(#clip-path)">
      <path id="패스_3698" data-name="패스 3698" d="M106.906,52c0,20.435-13.879,37-31,37s-31-16.565-31-37,13.879-37,31-37,31,16.565,31,37" fill="#222"/>
      <path id="패스_3699" data-name="패스 3699" d="M80.906,73a24,24,0,1,1-24-24,24,24,0,0,1,24,24" fill="#222"/>
      <path id="패스_3700" data-name="패스 3700" d="M70.906,73a24,24,0,1,0,24-24,24,24,0,0,0-24,24" fill="#222"/>
      <path id="패스_3701" data-name="패스 3701" d="M123.533,127.471a28.933,28.933,0,0,0-25.309-22.092,15.242,15.242,0,0,1-5.774-1.726,14.793,14.793,0,0,1-2.43-1.646c-2.375,2.06-7.57,3.493-13.614,3.493-6.4,0-11.851-1.607-14-3.865a14.813,14.813,0,0,1-2.851,2.018,15.247,15.247,0,0,1-5.774,1.726,28.933,28.933,0,0,0-25.31,22.092l-6.279,26.375H129.813Z" fill="#fff"/>
      <path id="패스_3702" data-name="패스 3702" d="M123.533,127.471a28.933,28.933,0,0,0-25.309-22.092,15.242,15.242,0,0,1-5.774-1.726,14.793,14.793,0,0,1-2.43-1.646c-2.375,2.06-7.57,3.493-13.614,3.493-6.4,0-11.851-1.607-14-3.865a14.813,14.813,0,0,1-2.851,2.018,15.247,15.247,0,0,1-5.774,1.726,28.933,28.933,0,0,0-25.31,22.092l-6.279,26.375H129.813Z" fill="none" stroke="#222" stroke-linecap="round" stroke-linejoin="round" stroke-width="1"/>
      <path id="패스_3703" data-name="패스 3703" d="M85.242,94.659a14.794,14.794,0,0,1-.562-4.036V74.863H67.321v15.76A14.868,14.868,0,0,1,62.4,101.635c2.153,2.258,7.6,3.865,14,3.865,6.044,0,11.239-1.433,13.614-3.492a14.819,14.819,0,0,1-4.778-7.349" fill="#fff"/>
      <path id="패스_3704" data-name="패스 3704" d="M85.242,94.659a14.794,14.794,0,0,1-.562-4.036V74.863H67.321v15.76A14.868,14.868,0,0,1,62.4,101.635c2.153,2.258,7.6,3.865,14,3.865,6.044,0,11.239-1.433,13.614-3.492A14.819,14.819,0,0,1,85.242,94.659Z" fill="none" stroke="#222" stroke-miterlimit="10" stroke-width="1"/>
      <path id="패스_3705" data-name="패스 3705" d="M51.553,54.146s-2.533-4.226-6.908,0,1.122,15.509,4.593,16.377,4.051-5.5,4.051-5.5Z" fill="#fff"/>
      <path id="패스_3706" data-name="패스 3706" d="M51.553,54.146s-2.533-4.226-6.908,0,1.122,15.509,4.593,16.377,4.051-5.5,4.051-5.5Z" fill="none" stroke="#222" stroke-linecap="round" stroke-linejoin="round" stroke-width="1"/>
      <path id="패스_3707" data-name="패스 3707" d="M46.345,58.083s3.472-3.022,5.208,1.961" fill="none" stroke="#00abe3" stroke-linecap="round" stroke-linejoin="round" stroke-width="1"/>
      <path id="패스_3708" data-name="패스 3708" d="M49.879,57.548a5.465,5.465,0,0,0-.93,7.949" fill="none" stroke="#00abe3" stroke-linecap="round" stroke-linejoin="round" stroke-width="1"/>
      <path id="패스_3709" data-name="패스 3709" d="M100.447,54.146s2.533-4.226,6.908,0-1.122,15.509-4.593,16.377-4.051-5.5-4.051-5.5Z" fill="#fff"/>
      <path id="패스_3710" data-name="패스 3710" d="M100.447,54.146s2.533-4.226,6.908,0-1.122,15.509-4.593,16.377-4.051-5.5-4.051-5.5Z" fill="none" stroke="#222" stroke-linecap="round" stroke-linejoin="round" stroke-width="1"/>
      <path id="패스_3711" data-name="패스 3711" d="M105.655,58.083s-3.472-3.022-5.208,1.961" fill="none" stroke="#00abe3" stroke-linecap="round" stroke-linejoin="round" stroke-width="1"/>
      <path id="패스_3712" data-name="패스 3712" d="M102.121,57.548a5.465,5.465,0,0,1,.93,7.949" fill="none" stroke="#00abe3" stroke-linecap="round" stroke-linejoin="round" stroke-width="1"/>
      <path id="패스_3713" data-name="패스 3713" d="M81.244,95.983h0a24.631,24.631,0,0,0,4.3-.384,14.8,14.8,0,0,1-.861-4.976V74.863H67.321v15.76c0,.329-.012.655-.033.98a24.325,24.325,0,0,0,13.956,4.38" fill="#222"/>
      <path id="패스_3714" data-name="패스 3714" d="M81.244,95.983h0a24.631,24.631,0,0,0,4.3-.384,14.8,14.8,0,0,1-.861-4.976V74.863H67.321v15.76c0,.329-.012.655-.033.98A24.325,24.325,0,0,0,81.244,95.983Z" fill="none" stroke="#222" stroke-linecap="round" stroke-linejoin="round" stroke-width="1"/>
      <path id="패스_3715" data-name="패스 3715" d="M76,88.461h0A24.447,24.447,0,0,1,51.553,64.014V41.447a24.447,24.447,0,1,1,48.894,0V64.014A24.447,24.447,0,0,1,76,88.461" fill="#fff"/>
      <path id="패스_3716" data-name="패스 3716" d="M76,88.461h0A24.447,24.447,0,0,1,51.553,64.014V41.447a24.447,24.447,0,1,1,48.894,0V64.014A24.447,24.447,0,0,1,76,88.461Z" fill="none" stroke="#222" stroke-linecap="round" stroke-linejoin="round" stroke-width="1"/>
      <path id="패스_3717" data-name="패스 3717" d="M67.465,56.925a2.893,2.893,0,1,1-2.893-2.893,2.893,2.893,0,0,1,2.893,2.893" fill="#222"/>
      <circle id="타원_141" data-name="타원 141" cx="2.893" cy="2.893" r="2.893" transform="translate(61.679 54.032)" fill="none" stroke="#222" stroke-linecap="round" stroke-linejoin="round" stroke-width="1"/>
      <path id="패스_3718" data-name="패스 3718" d="M58.786,50.378s3.761-6.076,9.547-3.761" fill="none" stroke="#222" stroke-linecap="round" stroke-linejoin="round" stroke-width="1"/>
      <path id="패스_3719" data-name="패스 3719" d="M84.535,56.925a2.893,2.893,0,1,0,2.893-2.893,2.893,2.893,0,0,0-2.893,2.893" fill="#222"/>
      <circle id="타원_142" data-name="타원 142" cx="2.893" cy="2.893" r="2.893" transform="translate(84.535 54.032)" fill="none" stroke="#222" stroke-linecap="round" stroke-linejoin="round" stroke-width="1"/>
      <path id="패스_3720" data-name="패스 3720" d="M93.214,50.378s-3.761-6.076-9.547-3.761" fill="none" stroke="#222" stroke-linecap="round" stroke-linejoin="round" stroke-width="1"/>
      <path id="패스_3721" data-name="패스 3721" d="M68.333,72.63a24.977,24.977,0,0,0,15.334,0" fill="none" stroke="#222" stroke-linecap="round" stroke-linejoin="round" stroke-width="1"/>
      <path id="패스_3722" data-name="패스 3722" d="M76,56.781s-6.22,10.652-.145,10.652" fill="none" stroke="#222" stroke-linecap="round" stroke-linejoin="round" stroke-width="1"/>
      <rect id="사각형_3210" data-name="사각형 3210" width="16" height="3" transform="translate(98.406 132.5)" fill="#fff"/>
      <rect id="사각형_3211" data-name="사각형 3211" width="16" height="3" transform="translate(98.406 132.5)" fill="none" stroke="#00abe3" stroke-linecap="round" stroke-linejoin="round" stroke-width="1"/>
      <path id="패스_3723" data-name="패스 3723" d="M67.321,153.5V92.623C65.735,92.246,53.907,103,53.289,105.848c-.381,1.76-.054,4.846.807,10.072l4.69,3.943-3.662,2.006c.343,1.932.723,4.052,1.14,6.4,1.508,8.486,5.607,18.854,8.368,25.231Z" fill="#fff"/>
      <path id="패스_3724" data-name="패스 3724" d="M67.321,153.5V92.623C65.735,92.246,53.907,103,53.289,105.848c-.381,1.76-.054,4.846.807,10.072l4.69,3.943-3.662,2.006c.343,1.932.723,4.052,1.14,6.4,1.508,8.486,5.607,18.854,8.368,25.231Z" fill="none" stroke="#00abe3" stroke-linecap="round" stroke-linejoin="round" stroke-width="1"/>
      <path id="패스_3725" data-name="패스 3725" d="M84.492,153.5V92.623c1.586-.377,13.414,10.377,14.032,13.225.381,1.76.054,4.846-.807,10.072l-4.69,3.943,3.662,2.006c-.343,1.932-.723,4.052-1.14,6.4-1.508,8.486-5.607,18.854-8.368,25.231Z" fill="#fff"/>
      <path id="패스_3726" data-name="패스 3726" d="M84.492,153.5V92.623c1.586-.377,13.414,10.377,14.032,13.225.381,1.76.054,4.846-.807,10.072l-4.69,3.943,3.662,2.006c-.343,1.932-.723,4.052-1.14,6.4-1.508,8.486-5.607,18.854-8.368,25.231Z" fill="none" stroke="#00abe3" stroke-linecap="round" stroke-linejoin="round" stroke-width="1"/>
      <path id="패스_3727" data-name="패스 3727" d="M62.392,146.444l-3.7-1.528L76.267,102.4a2,2,0,1,1,3.7,1.528Z" fill="#222"/>
      <path id="패스_3728" data-name="패스 3728" d="M62.392,146.444l-3.7-1.528L76.267,102.4a2,2,0,1,1,3.7,1.528Z" fill="none" stroke="#222" stroke-miterlimit="10" stroke-width="1"/>
      <path id="패스_3729" data-name="패스 3729" d="M63.711,134.5s-4.791,3,.1,8.5,10.84,1,14.591,2.5,3,1,7,0,4.411-8.528,4.411-8.528l-7.9-5.472s-8.407-9.287-17.209-3c-7,5-7,7-6,8,2,2,6-3,6-3s2.586-2,4-2" fill="#fff"/>
      <path id="패스_3730" data-name="패스 3730" d="M63.711,134.5s-4.791,3,.1,8.5,10.84,1,14.591,2.5,3,1,7,0,4.411-8.528,4.411-8.528l-7.9-5.472s-8.407-9.287-17.209-3c-7,5-7,7-6,8,2,2,6-3,6-3s2.586-2,4-2" fill="none" stroke="#222" stroke-linecap="round" stroke-linejoin="round" stroke-width="1"/>
      <path id="패스_3731" data-name="패스 3731" d="M68.712,156.5h-36.5l-10-55h36.5Z" fill="#fff"/>
      <path id="패스_3732" data-name="패스 3732" d="M68.712,156.5h-36.5l-10-55h36.5Z" fill="none" stroke="#222" stroke-linecap="round" stroke-linejoin="round" stroke-width="1"/>
      <path id="패스_3733" data-name="패스 3733" d="M124.406,157.5s-3-14.14-10-17.07S88.321,133,88.321,133l-7.8,28.4Z" fill="#fff"/>
      <path id="패스_3734" data-name="패스 3734" d="M124.406,157.5s-3-14.14-10-17.07S88.321,133,88.321,133l-7.8,28.4Z" fill="none" stroke="#222" stroke-linecap="round" stroke-linejoin="round" stroke-width="1"/>
      <path id="패스_3735" data-name="패스 3735" d="M75.906,15c-16.54,0-29.952,13.773-30,30.78A25.14,25.14,0,0,0,56.249,48a25.509,25.509,0,0,0,19.657-9.327A25.509,25.509,0,0,0,95.563,48a25.139,25.139,0,0,0,10.343-2.22c-.048-17.007-13.46-30.78-30-30.78" fill="#222"/>
    </g>
    <path id="패스_3737" data-name="패스 3737" d="M76,151h0a75,75,0,1,1,75-75A75,75,0,0,1,76,151Z" transform="translate(1152 1720)" fill="none" stroke="#222" stroke-linecap="round" stroke-linejoin="round" stroke-width="2"/>
  </g>
</svg>
